<?xml version="1.0" encoding="utf-8"?>
<!-- Generator: Adobe Illustrator 23.0.1, SVG Export Plug-In . SVG Version: 6.00 Build 0)  -->
<svg version="1.1" id="Layer_1" xmlns="http://www.w3.org/2000/svg" xmlns:xlink="http://www.w3.org/1999/xlink" x="0px" y="0px"
	 viewBox="0 0 116.6 131.3" style="enable-background:new 0 0 116.6 131.3;" xml:space="preserve">
<style type="text/css">
	.st0{fill:#F5F5F5;}
	.st1{fill:#E0E0E0;}
	.st2{fill:#FFFFFF;}
	.st3{fill:#EBEBEB;}
	.st4{fill:#FAFAFA;}
	.st5{fill:#455A64;}
	.st6{fill:#263238;}
	.st7{fill:#B78876;}
	.st8{fill:#51BB75;}
	.st9{fill:#AA6550;}
	.st10{opacity:0.4;enable-background:new    ;}
	.st11{opacity:0.2;fill:#FFFFFF;enable-background:new    ;}
	.st12{opacity:0.3;enable-background:new    ;}
	.st13{fill:none;}
	.st14{opacity:0.2;enable-background:new    ;}
	.st15{opacity:0.3;}
	.st16{clip-path:url(#SVGID_2_);}
	.st17{clip-path:url(#SVGID_4_);}
	.st18{clip-path:url(#SVGID_6_);}
	.st19{clip-path:url(#SVGID_8_);}
	.st20{clip-path:url(#SVGID_10_);}
	.st21{clip-path:url(#SVGID_12_);}
	.st22{clip-path:url(#SVGID_14_);}
	.st23{clip-path:url(#SVGID_16_);}
	.st24{clip-path:url(#SVGID_18_);}
	.st25{clip-path:url(#SVGID_20_);}
	.st26{clip-path:url(#SVGID_22_);}
	.st27{clip-path:url(#SVGID_24_);}
	.st28{clip-path:url(#SVGID_26_);}
	.st29{clip-path:url(#SVGID_28_);}
</style>
<title>SVG Polylogo</title>
<polygon class="st0" points="41.1,116.3 9.1,14.3 101.4,14.3 77.1,116.3 "/>
<path class="st1" d="M40.8,116.3c0,0,17.8-10.8,36,0H40.8z"/>
<path class="st2" d="M44.1,110.1c0-0.2-2.2-7-2.2-7l-1.9,0.8l1-6.2l4.5,4.2l-1.8,0.6l2.4,7.1L44.1,110.1z"/>
<path class="st2" d="M79.5,69.5c0.1-0.2,1.5-7.1,1.5-7.1l-2-0.2l3.9-4.9l1.9,5.9l-1.9-0.3l-1.4,7.3L79.5,69.5z"/>
<path class="st2" d="M25.5,51.8c0-0.2-3-6.6-3-6.6l-1.8,1l0.2-6.2l5,3.6l-1.7,0.9l3.3,6.7L25.5,51.8z"/>
<circle class="st1" cx="92.8" cy="75.8" r="12.5"/>
<circle class="st3" cx="91.8" cy="74.7" r="12.5"/>
<ellipse transform="matrix(0.941 -0.3384 0.3384 0.941 -19.8487 35.4245)" class="st0" cx="91.7" cy="74.6" rx="9.5" ry="9.3"/>
<path class="st4" d="M94.8,83.3c-4.9,1.7-10.2-0.7-12.1-5.5l0.1,0.3c2,4.9,7.6,7.2,12.5,5.1c4.4-1.9,6.8-6.7,5.5-11.3l-0.1-0.3
	c0-0.1-0.1-0.2-0.1-0.3C102.2,76.3,99.6,81.6,94.8,83.3z"/>
<path class="st1" d="M88.5,65.9c4.9-1.7,10.2,0.7,12.1,5.5c0-0.1,0-0.2-0.1-0.3c-1.8-5-7.3-7.6-12.2-5.8c-5,1.8-7.6,7.3-5.8,12.2
	l0,0l0,0c0,0.1,0.1,0.2,0.1,0.3C81.1,72.9,83.7,67.6,88.5,65.9z"/>
<circle class="st1" cx="26.5" cy="93.8" r="8.8"/>
<circle class="st3" cx="26.7" cy="92.8" r="8.8"/>
<ellipse transform="matrix(0.5631 -0.8264 0.8264 0.5631 -64.8985 62.5805)" class="st0" cx="26.7" cy="92.7" rx="6.6" ry="6.7"/>
<path class="st4" d="M23,98.1c-3-2.1-3.8-6.1-1.9-9.2L21.1,89c-2,3.1-1,7.3,2.1,9.3c3,1.9,6.9,1.1,9-1.7l0.1-0.2
	C30.2,99.4,26.1,100.1,23,98.1z"/>
<path class="st1" d="M30.4,87.3c3,2.1,3.8,6.1,1.9,9.2l0.1-0.2c2-3.1,1.2-7.3-1.9-9.3c-3-2-7.1-1.2-9.2,1.7l-0.1,0.2
	C23.3,85.9,27.4,85.2,30.4,87.3z"/>
<circle class="st1" cx="63.7" cy="26.9" r="6.9"/>
<circle class="st3" cx="63.6" cy="26.1" r="6.9"/>
<ellipse transform="matrix(0.3753 -0.9269 0.9269 0.3753 15.6131 75.2388)" class="st0" cx="63.6" cy="26" rx="5.1" ry="5.2"/>
<path class="st4" d="M61.7,30.7c-2.6-1.1-3.9-4-2.9-6.7l-0.1,0.1c-1,2.7,0.4,5.7,3.1,6.7c2.6,0.9,5.4-0.3,6.6-2.8c0,0,0-0.1,0-0.1
	C67.3,30.6,64.3,31.8,61.7,30.7z"/>
<path class="st1" d="M65.5,21.3c2.6,1.1,3.9,4,2.9,6.7l0.1-0.1c1-2.7-0.4-5.7-3.1-6.7c-2.6-0.9-5.4,0.3-6.6,2.8c0,0,0,0.1,0,0.1
	C60,21.5,62.9,20.3,65.5,21.3z"/>
<path class="st5" d="M57,34.6c0,0.1-1.8,5.1-1.8,5.1l-2.6-1.4l1.3-4.2L57,34.6z"/>
<polygon class="st6" points="55.2,39.8 55.5,39.8 57.2,34.7 56.9,34.6 "/>
<path class="st6" d="M55.2,35c0,0.1-0.1,0.1-0.2,0.1l0,0c0-0.1,0-0.1,0-0.2c0,0,0.1,0,0.2,0C55.2,34.9,55.2,35,55.2,35L55.2,35z"/>
<path class="st7" d="M52.2,37.3L52.2,37.3L52.2,37.3l0.8-0.8c0.2-0.2,0.6-0.4,0.9-0.3h0.5c0.5,0,0.8,0.4,0.8,0.9v0L55,37.6
	c0,0.1-0.1,0.2-0.2,0.2h-1.2L53.4,38L52.2,37.3z"/>
<path class="st8" d="M61.4,42.4c0.4,0.1,0.9,0.2,1.4,0.1c0.5,0,0.9,0,1.4,0.1c0.5,0.1,0.8,0.5,0.9,0.9c0,0.4-0.1,0.8-0.1,1.2
	s0.4,0.8,0.3,1.2c-0.1,0.3-0.4,0.5-0.8,0.6c-1.6,0.3-3.2-0.8-3.5-2.4c-0.1-0.5-0.1-1.1,0.1-1.6"/>
<path d="M62.1,43.5L63,44c0.1,0.1,0.3,0.1,0.4,0.2c0.1,0,0.3,0,0.4-0.1c0.1-0.2,0.2-0.4,0.1-0.6c0-0.2,0-0.4-0.2-0.6
	c-0.2-0.3-0.6-0.4-0.9-0.3c-0.3,0-0.7,0.1-1,0.2"/>
<path class="st6" d="M71.8,42.2c-0.8-0.8-1.8-1.4-2.9-1.5L66.4,40c-0.5-0.2-1-0.2-1.5-0.2c-0.1,0-0.3,0-0.4,0.1
	c0.1-0.2,0.2-0.4,0.2-0.6c0.3-0.6,0.1-1.4-0.5-1.8c-0.6-0.4-1.2-1.1-1.8-1.2c-0.7-0.1-1.4,0.2-1.8,0.8l0,0.4
	c0.4-0.5,0.9-0.9,1.5-1.1c0.3,1,0.7,1.8,1.4,2.6c0.1,0,0.1,0.1,0.2,0.2c0,0.1,0,0.3-0.1,0.4c-0.2,0.3-0.3,0.7-0.5,1
	c-0.2,0.5-0.3,1-0.3,1.6c-0.1,0.3,0,0.7,0.3,0.9c0.3,0.2,0.6,0.4,1,0.5c0.4,0.1,0.7,0.2,1.1,0.3c0.6,0.3,0.9,0.9,0.9,1.6
	c0.3-0.1,0.4-0.3,0.4-0.6l0.6,0.4c0.1-0.4,0.1-0.7,0-1.1c0.3,0.2,0.5,0.4,0.8,0.6c0.6,0.5,1.3,0.7,2.1,0.5v-0.6l1.2,0.8
	c0.3-0.4,0.4-1,0.3-1.5l0.6,0.7C72.4,43.8,72.3,42.9,71.8,42.2z"/>
<path class="st6" d="M62.4,35.9c0.7-0.6,1.7-0.6,2.3,0.1l0,0c0.3,0.3,0.4,0.7,0.7,0.9c0.9,0.9,2.6,0.1,3.5,1
	c0.6,0.6,0.5,1.7,1.2,2.3s1.6,0.2,2.2,0.8c0.2,0.2,0.4,0.5,0.4,0.9c0.1,0.3,0.2,0.6,0.4,0.9c0.2,0.3,0.5,0.4,0.8,0.3
	c0,0.4-0.2,0.7-0.6,0.8c-0.4,0-0.8,0-1.1-0.2c-0.3-0.1-0.7-0.2-1.1-0.1c-0.5,0.2-0.8,0.7-1.2,0.9c-0.4,0.1-0.9,0-1.3-0.3
	c-0.3-0.3-0.6-0.6-0.9-1c-0.3-0.4-0.6-0.7-1-1c-0.5-0.3-1-0.4-1.6-0.4c-0.6,0-1.1-0.1-1.7-0.3c-0.5-0.2-0.8-0.8-0.7-1.4"/>
<path class="st6" d="M62.5,41.8c0,0.1,0.1,0.2,0.2,0.2c0.1,0,0.2-0.1,0.3-0.1c0.7-0.5,1.4-1.1,1.8-1.9c0.4-0.6,0.6-1.4,0.5-2.1
	c-0.1-0.4-0.4-0.7-0.7-1c-0.3-0.3-0.6-0.5-1-0.7c-0.4-0.2-0.8-0.3-1.2-0.3c-1.2,0-2.1,1-2.1,2.2"/>
<path class="st7" d="M64.4,38.2c-0.3,0.3-0.7,0.6-1.1,0.8l-0.5,0.9c-0.3,0.5-0.1,1.1,0.4,1.4c0,0,0,0,0,0l0,0l-1.5,3
	c-0.3,0.6-2.1,0.5-2.8,0.2l0,0c-0.7-0.4-0.1-1,0.2-1.6c0.3-0.4,0.5-0.9,0.7-1.4c-0.5-0.5-0.7-1.2-0.4-1.8c0.3-0.8,0.7-1.5,1.2-2.2
	c0.4-0.7,1.1-1.3,1.7-0.9L64.4,38.2z"/>
<path class="st6" d="M60.6,38.1c0,0.1,0,0.2,0.1,0.2c0.1,0.1,0.2,0.1,0.2,0l0,0c0-0.1,0-0.2-0.1-0.2S60.7,38,60.6,38.1L60.6,38.1z"
	/>
<path class="st6" d="M60.6,37.9c0,0,0.2,0,0.3,0.1s0.2,0.2,0.3,0.2s0,0,0-0.1c0-0.1-0.1-0.2-0.2-0.2c-0.1,0-0.2,0-0.3,0
	C60.7,37.9,60.6,37.9,60.6,37.9z"/>
<path class="st6" d="M62.1,38.9c0,0.1,0,0.2,0.1,0.2c0.1,0.1,0.1,0.1,0.2,0l0,0c0-0.1,0-0.2,0-0.2c0,0,0,0,0,0
	C62.3,38.9,62.2,38.9,62.1,38.9C62.1,38.9,62.1,38.9,62.1,38.9L62.1,38.9z"/>
<path class="st6" d="M62.2,38.7c0,0,0.2,0,0.3,0.1s0.2,0.2,0.3,0.2s0,0,0-0.1c-0.1-0.2-0.3-0.3-0.5-0.2
	C62.2,38.7,62.2,38.7,62.2,38.7z"/>
<path class="st6" d="M61,39.6c-0.1-0.1-0.1-0.1-0.2-0.2c0,0-0.1,0-0.1-0.1c0,0,0.1-0.1,0.1-0.1l0.3-0.2c0.2-0.2,0.5-0.4,0.7-0.7
	c-0.3,0.2-0.5,0.4-0.7,0.6l-0.3,0.3c-0.1,0-0.1,0.1-0.1,0.2c0,0,0,0.1,0,0.1l0.1,0C60.8,39.5,60.9,39.6,61,39.6z"/>
<path class="st9" d="M59.9,41.4c0.5,0.3,1.1,0.4,1.7,0.4c-0.6,0.4-1.3,0.3-1.8-0.1L59.9,41.4z"/>
<path class="st9" d="M60.8,40c0.1,0,0.2,0,0.3,0c0.1,0,0.1,0.1,0.1,0.2c0,0.1,0,0.2-0.1,0.2c-0.1,0-0.2,0-0.2-0.1
	c-0.1-0.1-0.1-0.1-0.1-0.2C60.8,40.1,60.8,40.1,60.8,40C60.8,40,60.8,40,60.8,40"/>
<path class="st6" d="M61.4,39.9c-0.1,0.1-0.2,0.2-0.3,0.2c-0.1,0-0.3,0-0.4,0c0,0,0.1,0.1,0.1,0.1c0.1,0.1,0.2,0.1,0.3,0
	c0.1,0,0.2-0.1,0.3-0.2C61.4,40.1,61.4,40,61.4,39.9z"/>
<path class="st6" d="M62.2,38.4c0,0,0.2,0.1,0.3,0.2s0.3,0.3,0.3,0.2s0-0.1,0-0.1c-0.1-0.1-0.1-0.2-0.2-0.2
	c-0.1-0.1-0.2-0.1-0.3-0.1C62.3,38.4,62.2,38.4,62.2,38.4z"/>
<path class="st6" d="M61,37.5c0,0,0.1,0.1,0.3,0.1s0.2,0.2,0.3,0.1s0-0.1,0-0.1C61.4,37.4,61.2,37.3,61,37.5
	C61,37.4,61,37.5,61,37.5z"/>
<path class="st6" d="M62.4,36.3c-0.2,0.7,0,1.4,0.4,2c0.2,0.2,0.3,0.5,0.5,0.7c0.1,0.3,0,0.7,0.1,1.1c0.2,0.4,0.6,0.6,1,0.6
	c0.4,0,0.8,0.1,1.2,0.3c0.5,0.3,0.7,1,1.2,1.2s1.2-0.5,1.8-0.2c0.3,0.2,0.5,0.6,0.8,0.8c0.4,0.1,0.8,0.1,1.2,0
	c0.4-0.1,0.8-0.1,1.1,0.2"/>
<path class="st5" d="M71.7,42.9c-0.1-0.1-0.3-0.2-0.5-0.2c-0.2,0-0.4,0-0.6,0.1c-0.3,0.1-0.5,0.1-0.8,0.1c-0.2,0-0.3-0.1-0.5-0.2
	c-0.1-0.1-0.3-0.2-0.4-0.4c-0.1-0.2-0.2-0.3-0.4-0.3c-0.2,0-0.3,0-0.5,0c-0.2,0-0.4,0.1-0.6,0.2c-0.2,0.1-0.5,0.1-0.7,0
	c-0.2-0.1-0.4-0.2-0.6-0.4c-0.1-0.2-0.3-0.4-0.4-0.5c-0.1-0.2-0.3-0.3-0.6-0.3c-0.2-0.1-0.4-0.1-0.7-0.1c-0.2,0-0.4-0.1-0.6-0.2
	c-0.2-0.1-0.4-0.2-0.5-0.4c-0.1-0.2-0.1-0.4-0.1-0.6c0-0.2,0-0.4,0-0.5c-0.1-0.3-0.3-0.6-0.5-0.8c-0.3-0.5-0.5-1.2-0.3-1.8
	c0,0,0-0.1,0-0.1c0,0.2,0,0.4,0,0.5c0,0.5,0.1,1,0.4,1.4c0.2,0.3,0.4,0.5,0.5,0.9c0,0.2,0,0.4,0,0.6c0,0.2,0,0.4,0.1,0.5
	c0.1,0.2,0.3,0.3,0.5,0.4c0.2,0.1,0.4,0.1,0.6,0.2c0.2,0,0.5,0.1,0.7,0.1c0.2,0.1,0.5,0.2,0.6,0.4c0.2,0.2,0.3,0.4,0.4,0.5
	c0.1,0.2,0.3,0.3,0.5,0.4c0.2,0.1,0.4,0.1,0.6,0c0.2-0.1,0.4-0.1,0.6-0.2c0.2-0.1,0.4-0.1,0.6,0c0.2,0.1,0.3,0.2,0.4,0.4
	c0.1,0.1,0.2,0.3,0.3,0.4c0.1,0.1,0.3,0.1,0.4,0.1c0.3,0,0.5,0,0.8-0.1c0.2,0,0.4,0,0.6,0C71.4,42.7,71.5,42.7,71.7,42.9L71.7,42.9z
	"/>
<path class="st5" d="M71.8,41.4h-0.1c-0.8,0.2-1.7-0.1-2.2-0.8c-0.2-0.3-0.4-0.5-0.7-0.7c-0.3-0.1-0.7-0.2-1-0.2c-0.4,0-0.8,0-1.2,0
	c-0.2,0-0.4-0.1-0.6-0.2c-0.2-0.1-0.4-0.2-0.5-0.4c-0.1-0.3-0.3-0.7-0.4-1c-0.1-0.1-0.2-0.3-0.3-0.3c-0.1-0.1-0.3-0.1-0.4-0.2
	c-0.3,0-0.6-0.1-0.8-0.3c-0.4-0.2-0.7-0.5-0.8-0.9c0-0.1-0.1-0.2-0.1-0.3V36c0,0.1,0.1,0.3,0.1,0.4c0.2,0.4,0.5,0.7,0.8,0.9
	c0.3,0.1,0.5,0.2,0.8,0.2c0.2,0,0.3,0.1,0.5,0.2c0.2,0.1,0.3,0.2,0.4,0.4c0.2,0.3,0.2,0.7,0.4,1c0.2,0.3,0.6,0.5,1,0.5
	c0.4,0,0.8,0,1.2,0c0.4,0,0.8,0,1.1,0.2c0.3,0.2,0.5,0.4,0.7,0.7c0.2,0.2,0.4,0.4,0.6,0.6c0.4,0.2,0.8,0.3,1.2,0.3
	C71.7,41.4,71.8,41.3,71.8,41.4z"/>
<path class="st8" d="M62.1,43.5c0.7,0.3,1.2,0.8,1.7,1.3c0.3,0.1,4.1,4,5.7,5.8c0.6,0.6,0.8,1.5,0.5,2.3c-0.4,1-1.4,1.6-2.4,1.4
	l-5.3-0.7l0.4-2.7l3.5,0.5l-3.9-3.4c-1.8,2.7-3.8,5.3-5.9,7.8l-5.1-5.6l3-2.5l1.2-2.9c-1-0.1-5.4,0.5-6.3-0.8s2.8-7,2.8-7l1.8,1.1
	L52,41.9c0,0,2.8-0.2,4.9-0.1c0.4,0,0.9,0.1,1.3,0.2l1.3,0.4v0.1c0.1,0.7,0.7,1.2,1.4,1.1L62.1,43.5z"/>
<path class="st6" d="M56.2,53.1c-0.1-0.1-0.3-0.2-0.4-0.4c-0.3-0.3-0.5-0.6-0.7-1c-0.2-0.4-0.4-0.9-0.6-1.4l0,0
	c0,0.1,0.1,0.2,0.1,0.3c0-0.1-0.1-0.1-0.1-0.2l0,0c0.2,0.5,0.4,0.9,0.6,1.3C55.7,52.5,56.2,53,56.2,53.1z"/>
<path class="st6" d="M57,50.1c-0.1-0.1-0.3-0.1-0.4-0.2c-0.3-0.2-0.6-0.4-0.9-0.7c-0.3-0.3-0.7-0.5-0.9-0.7
	c-0.1-0.1-0.2-0.2-0.3-0.3c0,0,0.6,0.4,1.3,1S57,50.1,57,50.1z"/>
<path class="st6" d="M58.9,49.2c-0.2,0-0.4,0-0.6,0c-1-0.2-2-0.5-2.9-1.1c-0.2-0.1-0.4-0.2-0.5-0.4c0,0,0.2,0.1,0.6,0.3
	c0.4,0.3,0.9,0.5,1.4,0.7c0.5,0.2,1,0.3,1.5,0.4C58.5,49.2,58.7,49.2,58.9,49.2z"/>
<path class="st6" d="M65.2,46.3c-0.1-0.2-0.3-0.3-0.4-0.5c-0.3-0.4-0.6-0.8-1-1.1c-0.4-0.3-0.8-0.6-1.2-0.9
	c-0.2-0.1-0.4-0.2-0.5-0.3c0.2,0.1,0.4,0.1,0.6,0.3c0.9,0.5,1.6,1.2,2.2,2C65,45.9,65.1,46.1,65.2,46.3z"/>
<path class="st4" d="M65.4,46.5h-0.1l-0.3,0.1l-0.5,0.1c-0.2,0-0.4,0.1-0.7,0.1c-0.3,0-0.6,0-0.9-0.1c-0.2-0.1-0.3-0.2-0.4-0.3
	c-0.1-0.1-0.2-0.3-0.3-0.4c-0.2-0.3-0.4-0.7-0.6-1c-0.1-0.1-0.3-0.3-0.4-0.4c-0.2-0.1-0.3-0.2-0.5-0.2c-0.4-0.1-0.8-0.1-1.2,0
	c-0.4,0.1-0.8,0.1-1.1,0c-0.6-0.1-1.2-0.4-1.7-0.9c-0.3-0.3-0.5-0.7-0.6-1.1c0-0.1,0-0.2-0.1-0.3c0,0,0-0.1,0-0.1c0,0,0,0.2,0.1,0.5
	c0.1,0.4,0.3,0.8,0.6,1.1c0.4,0.5,1,0.8,1.6,0.9c0.4,0.1,0.7,0.1,1.1,0c0.4-0.1,0.8-0.1,1.2,0c0.2,0,0.4,0.1,0.6,0.2
	c0.2,0.1,0.3,0.3,0.4,0.4c0.2,0.3,0.4,0.7,0.6,1c0.1,0.1,0.2,0.3,0.3,0.4c0.1,0.1,0.2,0.2,0.4,0.3c0.3,0.1,0.6,0.2,0.8,0.1
	c0.3,0,0.5-0.1,0.7-0.1l0.6-0.1l0.3,0L65.4,46.5z"/>
<path class="st4" d="M54,44.7c-0.2,0-0.3-0.1-0.5-0.2c-0.4-0.2-0.7-0.5-0.9-0.9c-0.2-0.4-0.3-0.8-0.2-1.2c0-0.1,0.1-0.2,0.2-0.3
	c0-0.1,0.1-0.1,0.1-0.1c-0.1,0.1-0.1,0.3-0.2,0.5c-0.1,0.4,0,0.8,0.2,1.2c0.2,0.3,0.5,0.6,0.9,0.8C53.8,44.6,54,44.7,54,44.7z"/>
<path class="st4" d="M61.6,48.5c-0.1,0-0.2,0-0.3,0c-0.3,0-0.6,0.1-0.8,0.2c-0.2,0.1-0.4,0.1-0.6,0.2c-0.2,0.1-0.5,0.1-0.7,0
	c-0.5-0.1-1-0.5-1.3-0.9c-0.3-0.5-0.6-0.9-0.9-1.3c-0.2-0.4-0.5-0.7-0.9-0.9c-0.2-0.2-0.5-0.2-0.8-0.3c-0.2,0-0.3,0-0.3,0h0.1h0.2
	c0.3,0,0.6,0.1,0.8,0.2c0.4,0.2,0.7,0.5,0.9,0.9c0.3,0.4,0.5,0.9,0.9,1.3c0.3,0.4,0.7,0.7,1.2,0.9c0.4,0.1,0.8,0,1.2-0.1
	c0.3-0.1,0.6-0.1,0.9-0.2L61.6,48.5L61.6,48.5z"/>
<path class="st4" d="M67,48.1l-0.1-0.1C66.7,48,66.6,48,66.4,48c-0.2,0-0.4,0.1-0.6,0.2c-0.2,0.2-0.4,0.3-0.6,0.5
	c-0.2,0.2-0.4,0.3-0.7,0.4c-0.2,0.1-0.4,0.1-0.7,0.1c-0.1,0-0.3-0.1-0.4-0.1c-0.1,0-0.1-0.1-0.1-0.1c0.2,0.1,0.4,0.1,0.6,0.1
	c0.2,0,0.4,0,0.6-0.1c0.2-0.1,0.5-0.2,0.6-0.4c0.2-0.2,0.4-0.4,0.6-0.5c0.2-0.1,0.4-0.2,0.6-0.2c0.2,0,0.3,0,0.4,0.1
	C66.9,48,67,48.1,67,48.1z"/>
<path class="st4" d="M70,52.5c-0.1-0.2-0.2-0.5-0.3-0.7c-0.1-0.2-0.3-0.4-0.5-0.6C69,51,68.7,50.9,68.4,51c-0.3,0.1-0.6,0.2-0.9,0.4
	c-0.2,0.2-0.5,0.3-0.8,0.3c-0.2,0-0.4-0.1-0.5-0.2c-0.1,0-0.1-0.1-0.1-0.2c0,0.1,0.1,0.1,0.1,0.1c0.1,0.1,0.3,0.2,0.5,0.2
	c0.3,0,0.5-0.1,0.7-0.3c0.3-0.2,0.6-0.4,0.9-0.5c0.4-0.1,0.7,0,1,0.2c0.2,0.2,0.4,0.4,0.5,0.7c0.1,0.2,0.1,0.4,0.2,0.5
	C70,52.3,70,52.4,70,52.5z"/>
<path class="st4" d="M64,53.7c0.1,0,0.2-0.1,0.3-0.2c0.1-0.1,0.1-0.3,0.1-0.4c0-0.2-0.1-0.3-0.2-0.5c-0.1-0.2-0.2-0.3-0.2-0.5
	c0-0.2,0-0.3,0-0.5c0-0.1,0.1-0.2,0.2-0.3c0.1,0,0.1,0,0.1,0c-0.1,0.1-0.2,0.2-0.2,0.3c0,0.1,0,0.3,0,0.4c0.1,0.2,0.1,0.3,0.2,0.5
	c0.1,0.2,0.1,0.4,0.2,0.5c0,0.2,0,0.3-0.1,0.5C64.3,53.7,64.2,53.7,64,53.7C64.1,53.8,64,53.7,64,53.7z"/>
<path class="st4" d="M57.9,53.6c0-0.1,0-0.2,0-0.3c0-0.3-0.1-0.5-0.3-0.7c-0.3-0.2-0.7-0.4-1.1-0.5c-0.2-0.1-0.5-0.2-0.7-0.3
	c-0.2-0.2-0.4-0.3-0.5-0.6c-0.2-0.4-0.4-0.9-0.5-1.4c-0.1-0.4-0.2-0.8-0.5-1.1c-0.2-0.2-0.4-0.4-0.6-0.5c-0.2-0.1-0.3-0.1-0.3-0.1
	h0.1l0.2,0c0.3,0.1,0.5,0.3,0.7,0.5c0.2,0.3,0.4,0.7,0.5,1.1c0.1,0.5,0.3,0.9,0.5,1.4c0.1,0.2,0.3,0.4,0.5,0.5
	c0.2,0.1,0.4,0.2,0.6,0.3c0.4,0.1,0.8,0.3,1.1,0.5c0.2,0.2,0.3,0.5,0.3,0.7C58,53.4,58,53.5,57.9,53.6L57.9,53.6z"/>
<path class="st4" d="M56.7,55.1c-0.1-0.3-0.2-0.6-0.4-0.9c-0.2-0.3-0.5-0.5-0.8-0.7c0.1,0,0.2,0,0.3,0.1c0.2,0.1,0.4,0.3,0.6,0.5
	c0.2,0.2,0.3,0.4,0.3,0.7C56.7,54.9,56.7,55,56.7,55.1z"/>
<path class="st4" d="M52.3,42h-0.1c-0.1,0-0.3,0-0.4,0.1c-0.4,0.2-0.8,0.5-1.1,0.8c-0.2,0.1-0.4,0.3-0.7,0.3
	c-0.2,0.1-0.4,0.1-0.6,0.1c-0.1,0-0.3-0.1-0.4-0.1c-0.1,0-0.1-0.1-0.1-0.1c0.2,0.1,0.3,0.1,0.5,0.2c0.4,0,0.9-0.1,1.2-0.4
	c0.4-0.3,0.7-0.5,1.1-0.8c0.1-0.1,0.3-0.1,0.4,0C52.2,42,52.2,42,52.3,42z"/>
<path class="st4" d="M52.4,40.7C52.4,40.7,52.4,40.6,52.4,40.7c-0.1-0.1-0.2-0.2-0.2-0.2c-0.3,0-0.6,0-0.9,0c-0.2,0-0.4-0.1-0.5-0.2
	c-0.1-0.1-0.2-0.2-0.3-0.3c-0.1-0.1-0.1-0.3-0.1-0.4c0,0.1,0.1,0.2,0.2,0.3c0.2,0.2,0.5,0.4,0.8,0.4c0.2,0,0.3,0,0.5,0
	c0.2,0,0.3,0,0.4,0c0.1,0,0.2,0.1,0.3,0.2C52.4,40.6,52.4,40.7,52.4,40.7z"/>
<path d="M62,47.9c0.3-1-1.2,1.7-2,2.3c-0.4,0.3-0.8,0.6-1.1,0.9c-0.3,0.6-0.5,1.2-0.5,1.8C58.4,53,61.8,48.6,62,47.9z"/>
<path class="st8" d="M40.9,69.8l0.1-1.5l2.9,0.2l-0.1,2.3h-0.2c-1.5,0-3.1-0.1-4.6-0.3C38.4,70.3,40.9,69.8,40.9,69.8z"/>
<path d="M42.8,70.7c0.1-0.5,0.6-0.8,1.1-0.8l0,0.8L42.8,70.7z"/>
<path class="st10" d="M39.7,70.1c0,0-0.9,0.2-0.8,0.3c1.6,0.2,3.3,0.3,4.9,0.3v-0.1l-3.9-0.2C39.9,70.5,39.9,70.1,39.7,70.1z"/>
<path class="st6" d="M43.8,70.7h-0.7c-0.4,0-1.1,0-1.8-0.1s-1.3-0.1-1.8-0.1h-0.5h-0.1h0.1h0.5l1.8,0.1l1.8,0.1L43.8,70.7L43.8,70.7
	z"/>
<path class="st6" d="M39.9,70.5c0-0.2-0.1-0.3-0.3-0.5c0.1,0,0.2,0.1,0.2,0.2C39.9,70.3,39.9,70.4,39.9,70.5z"/>
<path class="st6" d="M40.8,70.1c0,0-0.1-0.1-0.1-0.1c0-0.1-0.1-0.1-0.1-0.1c0,0,0.1,0.1,0.1,0.1C40.8,70.1,40.8,70.1,40.8,70.1z"/>
<path class="st6" d="M41,70C41,70,41,70,41,70c0,0-0.1-0.1-0.1-0.1S40.9,69.9,41,70C41.1,70,41.1,70,41,70z"/>
<path class="st6" d="M41.2,69.8c0,0-0.1,0-0.2,0c0,0-0.1,0-0.2,0c0,0,0.1,0,0.2,0C41.1,69.8,41.2,69.8,41.2,69.8z"/>
<path class="st6" d="M41.3,69.6c0,0-0.1,0.1-0.2,0.1c-0.1,0-0.1,0-0.2,0L41.3,69.6L41.3,69.6z"/>
<path class="st6" d="M40.7,69.9c-0.1,0-0.1,0-0.2,0h-0.2l-0.1-0.1l0,0c0,0,0-0.1,0-0.1C40.4,69.7,40.6,69.7,40.7,69.9
	c-0.1,0-0.1,0.1-0.1,0.1c0,0,0,0,0,0.1c0-0.1,0-0.1-0.1-0.2c0-0.1-0.1-0.1-0.2-0.1c-0.1,0-0.1,0-0.2,0c0,0,0,0,0,0.1h0.1l0.2,0.1
	L40.7,69.9z"/>
<path class="st6" d="M40.7,69.9c0,0,0-0.1,0-0.1c0,0,0-0.1,0.1-0.1c0-0.1,0.1-0.1,0.2-0.1c0,0,0.1,0,0.1,0.1c0,0,0,0.1,0,0.1
	c0,0-0.1,0.1-0.1,0.1C40.8,69.9,40.8,69.9,40.7,69.9l0.2-0.1c0,0,0.1-0.1,0.1-0.1c0,0,0-0.1,0-0.1s-0.1,0-0.1,0.1
	c0,0-0.1,0.1-0.1,0.1L40.7,69.9z"/>
<path class="st6" d="M43.8,69.9c-0.1,0-0.1,0-0.2,0c-0.4,0-0.7,0.2-0.8,0.6c0,0.1-0.1,0.2-0.1,0.2v-0.1c0,0,0-0.1,0-0.2
	c0.1-0.3,0.5-0.6,0.8-0.6L43.8,69.9L43.8,69.9z"/>
<path class="st6" d="M43.6,68.7c0,0.2,0,0.4,0,0.6c0,0.2,0,0.4,0,0.6c0-0.2,0-0.4,0-0.6C43.6,69.1,43.6,68.8,43.6,68.7z"/>
<path class="st6" d="M42.4,70.3c-0.1,0-0.3,0-0.4,0c-0.1,0-0.3,0-0.4-0.1c0,0,0.2,0,0.4,0L42.4,70.3z"/>
<path class="st6" d="M43,70.4L43,70.4v0.2C43,70.5,43,70.5,43,70.4C43,70.4,43,70.4,43,70.4z"/>
<path class="st6" d="M43.2,70.1C43.2,70.1,43.2,70.2,43.2,70.1L43.2,70.1C43.1,70.2,43.1,70.2,43.2,70.1L43.2,70.1z"/>
<path class="st6" d="M43.5,70L43.5,70h-0.2c0,0,0,0,0.1-0.1S43.5,70,43.5,70z"/>
<path class="st6" d="M43.7,70L43.7,70L43.7,70L43.7,70L43.7,70z"/>
<path class="st8" d="M35.7,61.3l0.7-1.3l2.4,1.3l-1,1.9l-0.2-0.1c-1.3-0.6-2.6-1.2-3.8-2C33.5,60.7,35.7,61.3,35.7,61.3z"/>
<path d="M37,62.7c0.1-0.2,0.3-0.3,0.6-0.3c0.2,0,0.5,0,0.7,0.1l-0.3,0.7L37,62.7z"/>
<path class="st10" d="M34.6,61.1c0,0-0.8-0.2-0.8,0c1.3,0.8,2.6,1.5,4,2.1v0l-3.2-1.6C34.6,61.5,34.7,61.1,34.6,61.1z"/>
<path class="st6" d="M37.9,63.1L37.9,63.1l-0.1-0.1l-0.4-0.2l-1.5-0.7c-0.6-0.3-1.1-0.6-1.4-0.8L34,61.1L33.9,61l0,0l0,0l0.1,0.1
	l0.4,0.2l1.4,0.8c0.6,0.3,1.1,0.5,1.5,0.7l0.4,0.2L37.9,63.1L37.9,63.1z"/>
<path class="st6" d="M34.6,61.5c0-0.1,0-0.2,0-0.3c0-0.1,0-0.2,0-0.3c0.1,0.1,0.1,0.2,0.1,0.2C34.7,61.3,34.7,61.4,34.6,61.5z"/>
<path class="st6" d="M35.5,61.5c0,0,0-0.1,0-0.1c0,0,0-0.1,0-0.1C35.5,61.3,35.5,61.4,35.5,61.5z"/>
<path class="st6" d="M35.8,61.5C35.8,61.5,35.7,61.5,35.8,61.5c-0.1-0.1-0.1-0.2,0-0.2l0.1,0.1C35.8,61.5,35.8,61.5,35.8,61.5z"/>
<path class="st6" d="M36,61.4h-0.1l-0.1-0.1c0,0,0.1,0,0.1,0S36,61.3,36,61.4z"/>
<path class="st6" d="M36.2,61.2c-0.1,0-0.1,0-0.2,0c-0.1,0-0.1,0-0.1-0.1l0.2,0.1L36.2,61.2z"/>
<path class="st6" d="M35.6,61.3c-0.1,0-0.1,0-0.2-0.1c-0.1,0-0.1-0.1-0.2-0.1L35.2,61c0,0,0,0,0-0.1c0,0,0-0.1,0.1,0
	c0.2,0,0.3,0.1,0.3,0.3L35.6,61.3C35.6,61.3,35.6,61.3,35.6,61.3c0,0,0-0.1,0-0.1c0-0.1-0.1-0.1-0.1-0.2c-0.1-0.1-0.1-0.1-0.2-0.1
	c0,0,0,0,0,0.1c0,0,0,0.1,0.1,0.1C35.4,61.1,35.4,61.2,35.6,61.3L35.6,61.3z"/>
<path class="st6" d="M35.5,61.3c0,0,0-0.1,0-0.1c0,0,0.1-0.1,0.1-0.1c0.1,0,0.1,0,0.2,0c0,0,0,0.1,0,0.1c0,0,0,0,0,0h-0.1
	C35.7,61.2,35.6,61.2,35.5,61.3C35.6,61.2,35.5,61.2,35.5,61.3L35.5,61.3l0.2-0.1c0,0,0.1-0.1,0-0.1c0,0-0.1,0-0.1,0
	c0,0-0.1,0-0.1,0.1C35.5,61.2,35.5,61.2,35.5,61.3z"/>
<path class="st6" d="M38.2,62.5c-0.1,0-0.1-0.1-0.2-0.1c-0.3-0.1-0.6-0.1-0.9,0.2c0,0-0.1,0.1-0.1,0.2l0,0c0,0,0.1-0.1,0.1-0.1
	c0.1-0.1,0.3-0.2,0.4-0.2C37.8,62.3,38,62.3,38.2,62.5L38.2,62.5z"/>
<path class="st6" d="M38.5,61.3c-0.1,0.2-0.1,0.3-0.2,0.5L38,62.3c0.1-0.2,0.1-0.3,0.2-0.5C38.3,61.6,38.4,61.5,38.5,61.3z"/>
<path class="st6" d="M36.8,62.3c-0.1,0-0.3-0.1-0.4-0.2c-0.1-0.1-0.2-0.1-0.3-0.2l0.3,0.2C36.6,62.2,36.7,62.2,36.8,62.3z"/>
<path class="st6" d="M37.3,62.5L37.3,62.5l-0.1,0.1c0,0,0,0,0-0.1C37.2,62.5,37.2,62.5,37.3,62.5z"/>
<path class="st6" d="M37.6,62.4C37.6,62.4,37.5,62.4,37.6,62.4c-0.1,0-0.1,0-0.1,0H37.6C37.5,62.4,37.5,62.4,37.6,62.4z"/>
<path class="st6" d="M37.9,62.5L37.9,62.5c-0.1,0-0.1,0-0.2,0C37.7,62.4,37.8,62.4,37.9,62.5C37.9,62.4,37.9,62.5,37.9,62.5z"/>
<path class="st6" d="M38.1,62.5L38.1,62.5L38.1,62.5L38.1,62.5C38.1,62.5,38.1,62.5,38.1,62.5z"/>
<path class="st2" d="M45.9,51.2c0.1,0.5-0.3,1.1-0.8,1.1c0,0-0.1,0-0.1,0c-0.6,0.1-1.1-0.3-1.2-0.9c-0.1-0.5,0.3-1.1,0.8-1.1
	c0,0,0.1,0,0.1,0C45.3,50.2,45.8,50.5,45.9,51.2C45.9,51.1,45.9,51.1,45.9,51.2L45.9,51.2z"/>
<path class="st2" d="M41.8,56.4c0,0.2-0.1,0.4-0.3,0.4c-0.2,0-0.3-0.1-0.4-0.3c0-0.2,0.1-0.4,0.3-0.4C41.6,56.1,41.8,56.2,41.8,56.4
	C41.8,56.4,41.9,56.4,41.8,56.4z"/>
<path class="st6" d="M55.6,54.8L55.6,54.8l-4.3-4.7c0,0-9.8-1.7-10.6-0.6s-5,11.5-5,11.5l3,1.5l1.6-3.2c0.1,3.7,0.5,10.1,0.5,10.1
	h3.3l0.2-9.8l8.8-1.4c1.4-0.3,2.5-1.3,3.2-2.5L55.6,54.8z M42.1,55.8l1-2l4,0.4C45.2,54.7,43.3,55.3,42.1,55.8L42.1,55.8z"/>
<path class="st5" d="M52.1,52.5c-0.2,0.2-0.5,0.4-0.7,0.6c-0.2,0.2-0.5,0.4-0.8,0.5c0.2-0.2,0.5-0.4,0.7-0.6
	C51.5,52.8,51.8,52.7,52.1,52.5z"/>
<path class="st5" d="M54,53.9c0,0.1-0.1,0.2-0.1,0.3c-0.1,0.5,0.2,1.1,0.7,1.2c0,0,0,0,0,0l0,0c0.2,0,0.3,0,0.3,0
	c-0.1,0-0.2,0-0.3,0c-0.3-0.1-0.5-0.2-0.7-0.5c-0.1-0.3-0.2-0.6-0.1-0.8C53.8,54.1,53.9,54,54,53.9z"/>
<path class="st5" d="M50.1,53.5L50.1,53.5H50l-0.5,0.1l-1.8,0.4c-1.5,0.4-3.5,1-5.7,1.7c-0.3,0.1-0.5,0.2-0.8,0.4
	c-0.2,0.1-0.5,0.3-0.6,0.5c-0.2,0.2-0.3,0.5-0.3,0.7c0,0.3,0,0.5,0,0.8c0.1,1,0.1,1.9,0.2,2.7s0.1,1.4,0.1,1.8c0,0.2,0,0.4,0,0.5
	c0,0,0,0.1,0,0.1l0,0c0-0.1,0-0.1,0-0.2v-0.5c0-0.4,0-1-0.1-1.8s-0.1-1.7-0.2-2.7c0-0.3,0-0.5,0-0.8c0-0.3,0.2-0.5,0.3-0.8
	c0.2-0.2,0.4-0.4,0.7-0.5c0.2-0.2,0.5-0.3,0.8-0.4c1.1-0.3,2.2-0.6,3.2-0.9l2.6-0.7c0.7-0.2,1.3-0.3,1.8-0.4l0.5-0.1L50.1,53.5
	L50.1,53.5z"/>
<path class="st5" d="M43.4,59.2c0.3,0.1,0.6,0.2,0.8,0.3C44,59.5,43.7,59.4,43.4,59.2z"/>
<path class="st5" d="M43.7,58.7c0.1,0.1,0.2,0.2,0.3,0.3c0.1,0.1,0.2,0.3,0.3,0.4C44,59.2,43.8,58.9,43.7,58.7L43.7,58.7z"/>
<path class="st5" d="M42.5,52.9c0.1,0.1,0.2,0.3,0.3,0.4c0.1,0.1,0.2,0.3,0.3,0.4C42.8,53.6,42.6,53.3,42.5,52.9z"/>
<path class="st5" d="M43,52.7c0.1,0.2,0.1,0.3,0.1,0.5c0,0.2,0,0.4,0,0.5C43,53.6,43,53.4,43,53.3C43,53.1,43,52.9,43,52.7z"/>
<path class="st5" d="M52.1,53c0,0,0-0.1,0-0.2c0.1,0,0.1,0,0.2,0c0.1,0,0.1,0.1,0.1,0.2c0,0,0,0,0,0c0,0.1-0.1,0.1-0.2,0.1
	C52.2,53.2,52.1,53.2,52.1,53C52.1,53,52.1,52.9,52.1,53C52.1,53,52.1,53,52.1,53c0,0.1,0,0.1,0,0.1c0.1,0,0.1-0.1,0.1-0.1
	C52.3,53,52.2,52.9,52.1,53C52.2,52.9,52.1,52.9,52.1,53C52.1,53,52.1,53,52.1,53z"/>
<path class="st5" d="M49.7,50.5c0,0.1,0,0.2,0,0.3c0,0.5,0.4,0.8,0.9,0.8h0.1l0.3-0.1c-0.1,0.1-0.2,0.1-0.3,0.1
	c-0.5,0.1-0.9-0.2-1.1-0.6c0,0,0,0,0,0c0-0.1,0-0.1,0-0.2C49.6,50.7,49.7,50.6,49.7,50.5z"/>
<path class="st8" d="M51.1,50c0-0.3,0.1-0.6,0.2-1c0.1-0.3,0.4-0.5,0.7-0.7c0.6-0.2,1.2,0.3,1.6,0.8c0.5,0.8,0.9,1.7,1.1,2.7
	c0.3,0.9,0.8,1.8,1.5,2.4"/>
<path d="M51.1,50c0-0.3,0.1-0.6,0.2-1c0.1-0.3,0.4-0.5,0.7-0.7c0.6-0.2,1.2,0.3,1.6,0.8c0.5,0.8,0.9,1.7,1.1,2.7
	c0.3,0.9,1.3,2.2,1.1,3.3"/>
<polygon class="st7" points="51.1,50.1 52.3,49.6 55.3,53.5 55.5,54.3 56.2,55.7 "/>
<path class="st7" d="M62.3,53c-0.6,0-1.8,0-2.2-0.1c-0.8-0.1-0.8-0.2-0.7-0.3s1.3,0.1,1.1-0.1s-1.6-0.3-1.5-0.5s1.4,0.1,1.6,0.1
	s0.2-0.1,0-0.2s-1.7-0.3-1.6-0.6s0.3,0,0.3,0s1.5,0.4,1.5,0.2s-0.8-0.4-1.1-0.5s-0.4-0.2-0.2-0.3c0.4,0,0.9,0.1,1.3,0.2
	c0.3,0.1,1.1,0.3,0.8-0.1c-0.2-0.3-0.4-0.6-0.3-1c0.1-0.1,0.2-0.1,0.2,0c0,0,0.1,0.1,0.1,0.1c0,0.2,0.1,0.3,0.2,0.5
	c0.1,0.1,0.2,0.2,0.3,0.3l0.5,0.4L62.3,53z"/>
<path class="st8" d="M99.2,23.4c0,0-6-2.4-19.4,11c0,0-13.9,12-6.5,17c6.3,4.3,14.7-1.8,19.1-5.8c2.5-2.4,4.8-5,6.7-7.9
	C102.1,32.9,103.9,26.7,99.2,23.4z"/>
<path class="st10" d="M99.2,23.4c0,0-6-2.4-19.4,11c0,0-13.9,12-6.5,17c6.3,4.3,14.7-1.8,19.1-5.8c2.5-2.4,4.8-5,6.7-7.9
	C102.1,32.9,103.9,26.7,99.2,23.4z"/>
<path class="st8" d="M98.7,23.2c0,0-7.4-4.1-20.8,9.2c0,0-12.9,13.8-5,18.1c5.4,3,13.3-3,17.7-7c2.7-2.4,5.1-5.1,7.1-8
	C100.7,30.8,102.4,25.5,98.7,23.2z"/>
<ellipse transform="matrix(0.7071 -0.7071 0.7071 0.7071 -1.0044 71.3089)" class="st11" cx="85.6" cy="36.9" rx="14.9" ry="5.8"/>
<path class="st4" d="M97.8,22.9c0,0-0.6-0.1-1.6-0.1c-1.5-0.1-3,0.1-4.4,0.5c-1,0.3-2,0.6-2.9,1c-1.1,0.5-2.1,1-3.1,1.7
	c-2.3,1.5-4.4,3.2-6.3,5.1c-3.7,3.2-6.6,7.3-8.4,11.8c-0.5,1.4-0.7,2.9-0.6,4.3v0.4l0.1,0.3c0,0.1,0.1,0.2,0.1,0.3
	c0,0.1,0,0.1,0.1,0.2c0.1,0.1,0.1,0.3,0.1,0.4c-0.1-0.1-0.1-0.2-0.2-0.4c0-0.1-0.1-0.1-0.1-0.2c0-0.1-0.1-0.2-0.1-0.3
	s-0.1-0.2-0.1-0.3c0-0.1-0.1-0.2-0.1-0.4c-0.2-1.5-0.1-3,0.5-4.4c1.8-4.6,4.7-8.7,8.4-12c2-1.9,4.1-3.6,6.4-5.1
	c1-0.6,2.1-1.2,3.2-1.7c1-0.4,2-0.7,3-1c1.5-0.4,3-0.5,4.5-0.4l0.7,0.1l0.5,0.1C97.6,22.8,97.7,22.9,97.8,22.9z"/>
<path class="st10" d="M74.7,47.1c0,0-4-4.8,6-15s15.4-5.7,15.4-5.7s-4.5-3.7-15,6.7C72.1,42.1,74.7,47.1,74.7,47.1z"/>
<path class="st6" d="M79.8,52.6C79.8,52.6,79.7,52.6,79.8,52.6l-0.2-0.2l-0.4-0.6c-0.2-0.3-0.4-0.5-0.6-0.8c0.3,0.2,0.5,0.5,0.7,0.8
	C79.5,52,79.6,52.3,79.8,52.6z"/>
<path class="st6" d="M76.6,52.6L76.6,52.6l-0.1-0.1L76,52c-0.2-0.2-0.3-0.4-0.5-0.7c0.2,0.2,0.4,0.4,0.6,0.6
	C76.3,52.1,76.4,52.4,76.6,52.6z"/>
<path class="st6" d="M82.4,52c-0.3-0.3-0.5-0.6-0.7-0.9c-0.2-0.3-0.5-0.6-0.6-1c0.3,0.3,0.5,0.6,0.7,0.9C82,51.4,82.3,51.7,82.4,52z
	"/>
<path class="st6" d="M84.9,50.9c-0.3-0.3-0.5-0.6-0.8-0.9c-0.3-0.3-0.5-0.6-0.7-1c0.3,0.3,0.5,0.6,0.8,0.9
	C84.5,50.2,84.7,50.5,84.9,50.9z"/>
<path class="st6" d="M87.4,49.3c-0.3-0.3-0.5-0.6-0.8-0.9c-0.3-0.3-0.5-0.6-0.7-1c0.3,0.3,0.5,0.6,0.8,0.9
	C87,48.6,87.2,48.9,87.4,49.3z"/>
<path class="st6" d="M89.7,47.6c-0.3-0.3-0.5-0.6-0.8-0.9c-0.3-0.3-0.5-0.6-0.7-1C88.8,46.2,89.3,46.9,89.7,47.6L89.7,47.6z"/>
<path class="st6" d="M92,45.9c-0.3-0.3-0.5-0.6-0.8-0.9c-0.3-0.3-0.5-0.6-0.7-1c0.3,0.3,0.5,0.6,0.8,0.9
	C91.6,45.2,91.8,45.5,92,45.9z"/>
<path class="st6" d="M93.9,43.8c-0.3-0.3-0.5-0.6-0.8-0.9c-0.3-0.3-0.5-0.6-0.7-1C93,42.5,93.5,43.1,93.9,43.8L93.9,43.8z"/>
<path class="st6" d="M95.9,41.6c-0.3-0.3-0.5-0.6-0.8-0.9c-0.3-0.3-0.5-0.6-0.7-1c0.3,0.3,0.5,0.6,0.8,0.9
	C95.5,40.9,95.7,41.3,95.9,41.6z"/>
<path class="st6" d="M97.8,39.4c-0.3-0.3-0.5-0.6-0.8-0.9c-0.3-0.3-0.5-0.6-0.7-1c0.3,0.3,0.5,0.6,0.8,0.9
	C97.4,38.7,97.6,39.1,97.8,39.4z"/>
<path class="st6" d="M99.4,37.1c-0.3-0.3-0.5-0.6-0.8-0.9c-0.3-0.3-0.5-0.6-0.7-1c0.3,0.3,0.5,0.6,0.8,0.9
	C99,36.4,99.2,36.7,99.4,37.1z"/>
<path class="st6" d="M100.9,34.4c-0.3-0.3-0.5-0.6-0.8-0.9c-0.3-0.3-0.5-0.6-0.7-1c0.3,0.3,0.5,0.6,0.8,0.9
	C100.5,33.7,100.7,34,100.9,34.4z"/>
<path class="st6" d="M101.7,31.5c-0.3-0.3-0.5-0.5-0.7-0.8c-0.2-0.3-0.4-0.6-0.6-0.9c0.3,0.3,0.5,0.5,0.7,0.8
	C101.3,30.8,101.5,31.1,101.7,31.5z"/>
<path class="st6" d="M102.1,28.6c-0.3-0.3-0.5-0.5-0.7-0.8c-0.2-0.3-0.4-0.6-0.6-0.9c0.3,0.3,0.5,0.5,0.7,0.8
	C101.7,27.9,101.9,28.3,102.1,28.6z"/>
<circle class="st8" cx="32.8" cy="31.1" r="11.5"/>
<circle class="st11" cx="32.8" cy="31.1" r="11.5"/>
<path class="st6" d="M35.3,19.8c0.2,0.2,0.3,0.4,0.4,0.6c0.1,0.2,0.2,0.4,0.3,0.6c-0.2-0.2-0.3-0.4-0.4-0.6
	C35.4,20.3,35.3,20.1,35.3,19.8z"/>
<path class="st6" d="M37.2,20.5c0.2,0.2,0.3,0.3,0.4,0.5c0.1,0.2,0.2,0.4,0.3,0.6c-0.2-0.2-0.3-0.3-0.4-0.5
	C37.3,20.9,37.2,20.7,37.2,20.5z"/>
<path class="st6" d="M38.9,21.3c0.2,0.2,0.3,0.4,0.4,0.6c0.1,0.2,0.2,0.4,0.3,0.6c-0.2-0.2-0.3-0.4-0.4-0.6
	C39,21.7,38.9,21.5,38.9,21.3z"/>
<path class="st6" d="M33.3,19.5c0.2,0.2,0.3,0.4,0.4,0.6c0.1,0.2,0.2,0.4,0.3,0.6c-0.2-0.2-0.3-0.4-0.4-0.6
	C33.4,20,33.3,19.8,33.3,19.5z"/>
<path class="st6" d="M31.4,19.6c0.2,0.2,0.3,0.4,0.4,0.6c0.1,0.2,0.2,0.4,0.3,0.6c-0.2-0.2-0.3-0.4-0.4-0.6
	C31.6,20.1,31.5,19.9,31.4,19.6z"/>
<path class="st6" d="M29.6,20c0.2,0.2,0.3,0.4,0.4,0.6c0.1,0.2,0.2,0.4,0.3,0.6c-0.2-0.2-0.3-0.4-0.4-0.6
	C29.7,20.4,29.6,20.2,29.6,20z"/>
<path class="st6" d="M27.9,20.6c0.2,0.2,0.3,0.4,0.4,0.6c0.1,0.2,0.2,0.4,0.3,0.6c-0.2-0.2-0.3-0.4-0.4-0.6C28,21,28,20.8,27.9,20.6
	z"/>
<path class="st6" d="M26.3,21.5c0.2,0.2,0.3,0.4,0.4,0.6c0.1,0.2,0.2,0.4,0.3,0.6c-0.2-0.2-0.3-0.4-0.4-0.6
	C26.4,22,26.3,21.8,26.3,21.5z"/>
<path class="st6" d="M24.9,22.7c0.2,0.2,0.3,0.4,0.4,0.6c0.1,0.2,0.2,0.4,0.3,0.6c-0.2-0.2-0.3-0.4-0.4-0.6
	C25,23.1,24.9,22.9,24.9,22.7z"/>
<path class="st6" d="M23.8,23.8c0.2,0.2,0.3,0.4,0.4,0.6c0.1,0.2,0.2,0.4,0.3,0.6c-0.2-0.2-0.3-0.4-0.4-0.6
	C23.9,24.3,23.8,24.1,23.8,23.8z"/>
<path class="st6" d="M22.8,25.4c0.2,0.2,0.3,0.4,0.4,0.6c0.1,0.2,0.2,0.4,0.3,0.7c-0.2-0.2-0.3-0.4-0.4-0.6
	C23,25.8,22.9,25.6,22.8,25.4z"/>
<path class="st6" d="M22,27c0.2,0.2,0.3,0.4,0.4,0.6c0.1,0.2,0.2,0.4,0.3,0.6c-0.2-0.2-0.3-0.4-0.4-0.6C22.2,27.5,22.1,27.2,22,27z"
	/>
<path class="st6" d="M21.5,28.7c0.2,0.2,0.3,0.4,0.4,0.6c0.2,0.2,0.3,0.4,0.4,0.6c-0.2-0.2-0.3-0.4-0.4-0.6
	C21.7,29.2,21.6,29,21.5,28.7z"/>
<path class="st6" d="M21.3,30.7c0.2,0.2,0.3,0.4,0.4,0.7c0.1,0.2,0.3,0.5,0.3,0.7c-0.2-0.2-0.3-0.4-0.4-0.7
	C21.5,31.2,21.3,31,21.3,30.7z"/>
<path class="st6" d="M21.5,33.3c0.2,0.2,0.4,0.4,0.5,0.7c0.2,0.2,0.3,0.5,0.4,0.8c-0.2-0.2-0.3-0.5-0.5-0.7
	C21.7,33.8,21.6,33.6,21.5,33.3z"/>
<circle class="st8" cx="33.6" cy="32.3" r="11.5"/>
<ellipse transform="matrix(0.9964 -8.524302e-02 8.524302e-02 0.9964 -2.6191 2.9735)" class="st11" cx="33.5" cy="32.2" rx="8.8" ry="8.6"/>
<path class="st4" d="M34.2,40.7c-4.7,0.4-8.9-3-9.5-7.7c0,0.1,0,0.2,0,0.3c0.4,4.8,4.7,8.4,9.5,8c4.8-0.4,8.4-4.7,8-9.5l0,0
	c0-0.1,0-0.2,0-0.3C42.5,36.2,39,40.3,34.2,40.7z"/>
<path class="st12" d="M32.8,23.7c4.7-0.4,8.9,3,9.5,7.8c0-0.1,0-0.2,0-0.3c-0.3-4.8-4.4-8.5-9.3-8.3c-4.8,0.3-8.5,4.4-8.3,9.3
	c0,0.2,0,0.3,0,0.5c0,0.1,0,0.2,0,0.3C24.5,28.2,28.1,24.1,32.8,23.7z"/>
<circle class="st8" cx="60" cy="87.8" r="19.1"/>
<circle class="st10" cx="60" cy="87.8" r="19.1"/>
<circle class="st8" cx="58.8" cy="85.8" r="19.1"/>
<ellipse transform="matrix(0.9953 -9.671437e-02 9.671437e-02 0.9953 -7.9996 6.0801)" class="st11" cx="58.7" cy="85.6" rx="14.5" ry="14.2"/>
<path class="st4" d="M60.1,99.6c-7.8,0.8-14.8-4.8-15.8-12.6c0,0.1,0,0.3,0,0.4c0.6,8,7.7,14,15.7,13.3c8-0.6,14-7.7,13.3-15.7
	c0-0.2,0-0.3,0-0.5l0,0c0-0.1,0-0.3,0-0.4C73.7,92,67.9,98.9,60.1,99.6z"/>
<path class="st12" d="M57.4,71.5c7.8-0.8,14.8,4.8,15.8,12.7c0-0.1,0-0.3,0-0.4c-0.9-8-8.1-13.7-16.1-12.8
	c-7.8,0.9-13.5,7.8-12.9,15.7c0,0.1,0,0.3,0,0.4C43.7,79.1,49.5,72.3,57.4,71.5z"/>
<path class="st4" d="M76.1,77.5c0,0-0.1-0.1-0.1-0.1L75.8,77c-0.1-0.2-0.2-0.4-0.4-0.6s-0.3-0.5-0.5-0.8c-1.2-1.8-2.6-3.4-4.3-4.7
	c-1.2-0.9-2.4-1.7-3.8-2.3c-1.5-0.7-3.1-1.2-4.8-1.5c-0.9-0.2-1.8-0.2-2.7-0.3c-1,0-1.9,0-2.8,0.2c-3,0.4-5.9,1.5-8.3,3.2
	c-0.8,0.6-1.6,1.2-2.3,1.9c-1.3,1.3-2.5,2.8-3.4,4.4c-0.8,1.5-1.5,3-1.9,4.7c-0.6,2.6-0.7,5.3-0.3,8c0.2,0.9,0.4,1.8,0.7,2.7
	c0.1,0.4,0.2,0.7,0.3,1s0.2,0.5,0.3,0.7l0.2,0.4c0,0,0,0.1,0,0.2c0,0-0.1-0.1-0.1-0.1l-0.2-0.4c-0.1-0.2-0.2-0.4-0.3-0.7
	c-0.1-0.3-0.3-0.6-0.4-0.9c-0.7-2-1-4.2-1-6.3c0-3.2,0.9-6.4,2.5-9.2c2.9-5.3,8.2-8.9,14.3-9.7c1-0.1,1.9-0.2,2.9-0.2
	c0.9,0,1.8,0.1,2.8,0.3c3.2,0.5,6.2,1.9,8.7,3.9c1,0.8,1.9,1.6,2.7,2.6c0.6,0.7,1.1,1.5,1.6,2.2c0.2,0.3,0.4,0.6,0.5,0.9
	s0.3,0.5,0.3,0.7l0.2,0.4C76.1,77.5,76.1,77.5,76.1,77.5z"/>
<path class="st4" d="M60.4,84.7c-0.7,0.2-1.4,0.4-2.2,0.4c-0.7,0.1-1.5,0.1-2.2,0c0.7-0.2,1.4-0.4,2.2-0.4
	C58.9,84.6,59.7,84.6,60.4,84.7z"/>
<path class="st4" d="M61.1,91.5c-0.7,0.2-1.4,0.4-2.2,0.4c-0.7,0.1-1.5,0.1-2.2,0c0.7-0.2,1.4-0.4,2.2-0.4
	C59.7,91.4,60.4,91.4,61.1,91.5z"/>
<path class="st6" d="M56.1,106.4c-0.4-0.6-0.8-1.3-1.1-2C55.4,105.1,55.8,105.7,56.1,106.4z"/>
<path class="st6" d="M53,105.4c-0.4-0.6-0.8-1.2-1.1-1.9C52.3,104.1,52.7,104.8,53,105.4z"/>
<path class="st6" d="M50.1,104.1c-0.2-0.3-0.4-0.6-0.6-0.9c-0.2-0.3-0.4-0.7-0.5-1c0.2,0.3,0.4,0.6,0.6,0.9
	C49.8,103.4,49.9,103.7,50.1,104.1z"/>
<path class="st6" d="M59.4,106.8c-0.2-0.3-0.4-0.6-0.6-1c-0.2-0.3-0.4-0.7-0.5-1C58.7,105.5,59.1,106.1,59.4,106.8z"/>
<path class="st6" d="M62.5,106.7c-0.4-0.6-0.8-1.3-1.1-2C61.8,105.3,62.2,106,62.5,106.7z"/>
<path class="st6" d="M65.5,106c-0.2-0.3-0.4-0.6-0.6-1c-0.2-0.3-0.4-0.7-0.5-1C64.8,104.6,65.2,105.3,65.5,106z"/>
<path class="st6" d="M68.3,105c-0.2-0.3-0.4-0.6-0.6-1c-0.2-0.3-0.4-0.7-0.5-1C67.6,103.6,68,104.3,68.3,105z"/>
<path class="st6" d="M70.9,103.5c-0.2-0.3-0.4-0.6-0.6-1c-0.2-0.3-0.4-0.7-0.5-1C70.2,102.1,70.6,102.8,70.9,103.5z"/>
<path class="st6" d="M73.2,101.6c-0.2-0.3-0.4-0.6-0.6-1c-0.2-0.3-0.4-0.7-0.5-1c0.2,0.3,0.4,0.6,0.6,1
	C72.9,100.9,73.1,101.2,73.2,101.6z"/>
<path class="st6" d="M75.1,99.6c-0.4-0.6-0.8-1.3-1.1-2C74.4,98.2,74.7,98.9,75.1,99.6z"/>
<path class="st6" d="M76.7,97.3c-0.4-0.6-0.8-1.3-1.1-2c0.2,0.3,0.5,0.6,0.6,1C76.4,96.6,76.6,96.9,76.7,97.3z"/>
<path class="st6" d="M78.1,94.6c-0.2-0.3-0.4-0.6-0.6-1c-0.2-0.3-0.4-0.7-0.5-1c0.2,0.3,0.4,0.6,0.6,1C77.7,94,77.9,94.3,78.1,94.6z
	"/>
<path class="st6" d="M78.9,91.7c-0.2-0.3-0.4-0.6-0.6-1c-0.2-0.3-0.4-0.7-0.5-1c0.2,0.3,0.5,0.6,0.6,1C78.6,91,78.8,91.3,78.9,91.7z
	"/>
<path class="st6" d="M79.3,88.6c-0.3-0.4-0.5-0.8-0.7-1.2c-0.2-0.4-0.5-0.8-0.7-1.3C78.4,86.9,78.9,87.7,79.3,88.6z"/>
<path class="st6" d="M78.9,84.2c-0.3-0.4-0.5-0.8-0.7-1.2c-0.2-0.4-0.5-0.8-0.7-1.2c0.3,0.4,0.5,0.8,0.8,1.2
	C78.5,83.4,78.7,83.8,78.9,84.2z"/>
<path class="st13" d="M49.3,89.1c0,0.1,0,0.2,0,0.3c0.1,0.1,0.2,0.2,0.3,0.1c0,0,0,0,0,0c0.1,0,0.1-0.1,0.1-0.2c0-0.1,0-0.2,0-0.2
	c-0.1-0.1-0.2-0.1-0.2-0.1S49.4,88.9,49.3,89.1z"/>
<path class="st13" d="M58.6,82.6c0,0.1,0,0.2,0,0.3c0,0.1,0.1,0.1,0.3,0.1c0.1,0,0.2-0.1,0.2-0.2c0,0,0-0.1,0-0.1l0,0
	c0-0.1,0-0.1-0.1-0.2c-0.1-0.1-0.2-0.1-0.2-0.1S58.7,82.4,58.6,82.6z"/>
<path class="st13" d="M47.7,98c0,0.1,0,0.2,0,0.3c0,0.1,0.2,0.2,0.3,0.1c0.1,0,0.1-0.1,0.1-0.1c0-0.1,0-0.2,0-0.2
	c-0.1-0.1-0.2-0.1-0.2-0.1S47.7,97.9,47.7,98z"/>
<path class="st13" d="M69.9,83c0,0.1,0,0.2,0,0.3c0.1,0.1,0.2,0.2,0.3,0.1c0,0,0,0,0,0c0.1,0,0.1-0.1,0.1-0.2c0-0.1,0-0.2,0-0.3
	c-0.1-0.1-0.2-0.1-0.2-0.1S70,82.9,69.9,83z"/>
<path class="st13" d="M50.6,74.8c0,0.1,0,0.2,0,0.3c0.1,0.1,0.2,0.2,0.3,0.1c0,0,0,0,0,0c0.1,0,0.1-0.1,0.1-0.2
	c0-0.2-0.1-0.3-0.2-0.4l0,0c0,0.1,0,0.1,0,0.2c0-0.1,0-0.1,0-0.2l0,0l0,0C50.9,74.6,50.7,74.6,50.6,74.8z"/>
<path class="st13" d="M70.8,79.5c0,0.1,0,0.2,0,0.3c0.1,0.1,0.2,0.2,0.3,0.1c0.1,0,0.1-0.1,0.1-0.1c0-0.1,0-0.2-0.1-0.2
	c-0.1-0.1-0.2-0.1-0.2-0.1S70.9,79.3,70.8,79.5z"/>
<path class="st13" d="M58,83.9c0,0.1,0,0.2,0,0.3c0.1,0.1,0.2,0.2,0.3,0.1c0.1,0,0.1-0.1,0.1-0.2c0-0.1,0-0.1,0-0.2l0,0l0,0
	c-0.1-0.1-0.2-0.1-0.2-0.1C58.2,83.8,58.1,83.9,58,83.9z"/>
<path class="st13" d="M55.6,88.3c0,0.1,0,0.2,0,0.3c0.1,0.1,0.2,0.2,0.3,0.1c0,0,0,0,0,0c0.1,0,0.1-0.1,0.1-0.2v-0.1l0,0
	c0-0.1,0-0.1-0.1-0.2c-0.1-0.1-0.2-0.1-0.2-0.1C55.7,88.1,55.6,88.2,55.6,88.3z"/>
<path class="st2" d="M68.2,92.4c0.1,0,0.2-0.1,0.2-0.2l0,0h0.6L71,92l0,0l2.2-1.8l4.3-0.4c0,0,0-0.1,0-0.1l-4.4,0.4l0,0l0,0L71,91.9
	l-2,0.2l-0.6,0.1l0,0c0-0.1-0.1-0.2-0.2-0.2c0,0,0,0,0,0c-0.1,0-0.2,0.1-0.2,0.2l0,0C68,92.3,68.1,92.4,68.2,92.4z"/>
<path class="st2" d="M49.4,76.6c0,0.1,0.1,0.2,0.2,0.2l0,0c0.1,0,0.2-0.1,0.2-0.2s-0.1-0.2-0.2-0.2c0,0,0,0-0.1,0
	C49.5,76.4,49.4,76.5,49.4,76.6z"/>
<path class="st2" d="M55.6,100.5c0-0.5-0.1-1-0.2-1.5l0,0l0,0l-1.2-0.7l0,0l0,0l-2.7,0.3l-0.8,0.1h-0.1c0-0.1-0.1-0.2-0.2-0.2
	c0,0,0,0,0,0c-0.1,0-0.2,0.1-0.2,0.2c0,0,0,0,0,0c0,0.1,0.1,0.2,0.2,0.2c0,0,0,0,0,0c0.1,0,0.2-0.1,0.2-0.2h0.1l0.8-0.1l2.7-0.2
	l1.1,0.7c0,0.5,0.1,1,0.2,1.5l0.4,4.1H56C55.9,103.5,55.7,102,55.6,100.5z"/>
<path class="st2" d="M74.9,95.2l-9.5,0.9l-2.1,0.2l0,0l0,0l-0.7,2.5l0,0c0.2,2.1,0.4,4,0.6,5.5h0.1c-0.1-1.5-0.3-3.3-0.5-5.5
	c0.2-0.8,0.4-1.6,0.7-2.4l2-0.2L74.9,95.2l0.5,0.1v-0.1L74.9,95.2z"/>
<path class="st2" d="M55.8,70.3L55.8,70.3L55.8,70.3c0.1,1.3,0.3,2.4,0.3,3.3c0,0.4,0.1,0.7,0.1,0.9s0,0.2,0,0.3c0-0.1,0-0.2,0-0.3
	c0-0.2,0-0.6-0.1-0.9c-0.1-0.8-0.2-1.9-0.3-3.2l1.8-2.2l1-1.2v0v-0.3h-0.1V67l-0.9,1.1L55.8,70.3z"/>
<path class="st2" d="M58,70.2c0,0,0-0.1,0-0.1c0-0.1-0.1-0.2-0.2-0.2c0,0,0,0,0,0c-0.1,0-0.2,0.1-0.2,0.2c0,0,0,0,0,0l0,0
	c0,0.1,0.1,0.2,0.2,0.2c0,0,0,0,0,0C57.9,70.3,57.9,70.3,58,70.2l0.1,0.2c0.2,0.2,0.5,0.4,0.8,0.7c0,0.3,0.1,0.6,0.1,0.9
	c0.1,0.7,0.1,1.3,0.2,1.8c0,0.2,0.1,0.5,0.1,0.7c0-0.2,0-0.5,0-0.7c0-0.4-0.1-1.1-0.2-1.8c0-0.3-0.1-0.6-0.1-0.9l0,0l0,0
	c-0.4-0.3-0.7-0.6-0.9-0.7L58,70.2z"/>
<path class="st2" d="M46,71.6l1.2,1.2l0,0l0,0l3.3-0.3c0.1,0.7,0.1,1.3,0.2,1.7c0,0.2,0,0.3,0,0.4l0,0l0,0l0,0c0,0.1,0,0.1,0,0.2
	v-0.2c0.1,0,0.1,0.1,0.2,0.1c0.1,0.1,0.1,0.3,0,0.4c-0.1,0.1-0.1,0.1-0.2,0.1c-0.1,0-0.1-0.1-0.2-0.1c0-0.1,0-0.2,0-0.3
	c0.1-0.1,0.2-0.2,0.2-0.2s0,0-0.1,0c-0.1,0-0.1,0.1-0.2,0.1c-0.1,0.1-0.1,0.2,0,0.3c0.1,0.2,0.3,0.3,0.5,0.2c0,0,0,0,0,0
	c0.1,0,0.3-0.1,0.4-0.2c0-0.2-0.1-0.4-0.2-0.4c0,0-0.1,0-0.1,0l0,0c0-0.1,0-0.2,0-0.4c0-0.4-0.1-1-0.2-1.8v-0.1h0l-3.3,0.3l-1.3-1.2
	L46,71.6z"/>
<path class="st8" d="M12.9,59.4c0,0,3-2.4,12.8,2.8c0,0,9.9,4.3,6.6,8.4c-2.8,3.5-8.6,1.5-11.8,0c-1.8-0.9-3.6-2-5.1-3.3
	C12.9,65.3,10.8,62.1,12.9,59.4z"/>
<path class="st10" d="M12.9,59.4c0,0,3-2.4,12.8,2.8c0,0,9.9,4.3,6.6,8.4c-2.8,3.5-8.6,1.5-11.8,0c-1.8-0.9-3.6-2-5.1-3.3
	C12.9,65.3,10.8,62.1,12.9,59.4z"/>
<path class="st8" d="M13.1,59.2c0,0,3.5-3.6,13.3,1.6c0,0,9.7,5.5,6,9.3c-2.5,2.6-8,0.6-11.1-0.8c-1.9-0.9-3.7-2-5.4-3.3
	C13.4,63.9,11.5,61.2,13.1,59.2z"/>
<ellipse transform="matrix(0.467 -0.8843 0.8843 0.467 -44.9525 54.7436)" class="st11" cx="22.9" cy="64.7" rx="3.4" ry="8.8"/>
<path class="st4" d="M13.6,58.9c0.1-0.1,0.1-0.1,0.2-0.2l0.3-0.1l0.4-0.2c0.8-0.3,1.7-0.5,2.5-0.6c0.6,0,1.2,0,1.8,0
	c0.7,0.1,1.4,0.2,2.1,0.4c1.6,0.4,3.1,1,4.5,1.7c2.7,1.2,5,3,6.8,5.4c0.5,0.7,0.9,1.6,1,2.4c0,0.1,0,0.1,0,0.2v0.2
	c0,0.1,0,0.2,0,0.3c0,0.1,0,0.2,0,0.3c0,0,0-0.3-0.1-1c-0.2-0.9-0.6-1.7-1.1-2.3c-1.8-2.2-4.2-4-6.8-5.2c-1.4-0.7-2.9-1.3-4.4-1.8
	c-0.7-0.2-1.3-0.3-2-0.4C18.3,58,17.7,58,17.1,58c-0.9,0-1.7,0.2-2.6,0.5C13.9,58.8,13.6,59,13.6,58.9z"/>
<path class="st10" d="M30.8,68.5c0,0,1.4-3.4-6-7.4s-9.7-0.5-9.7-0.5s1.9-2.9,9.6,1.2C31.4,65.2,30.8,68.5,30.8,68.5z"/>
<path class="st6" d="M28.9,72.5c0,0,0-0.3,0.1-0.6c0-0.2,0.1-0.4,0.3-0.6c0,0.2-0.1,0.4-0.2,0.6C29.1,72.2,29,72.4,28.9,72.5z"/>
<path class="st6" d="M30.8,72c0,0,0-0.2,0.1-0.5s0.2-0.4,0.2-0.4c0,0.2-0.1,0.3-0.1,0.5C30.9,71.7,30.8,71.9,30.8,72z"/>
<path class="st6" d="M27.3,72.6c0-0.2,0.1-0.4,0.2-0.7c0.1-0.2,0.2-0.4,0.3-0.6c0,0.2-0.1,0.5-0.2,0.7
	C27.5,72.2,27.4,72.4,27.3,72.6z"/>
<path class="st6" d="M25.8,72.4c0-0.2,0.1-0.5,0.2-0.7c0.1-0.2,0.2-0.5,0.3-0.7C26.1,71.5,26,72,25.8,72.4z"/>
<path class="st6" d="M24,72c0-0.2,0.1-0.5,0.2-0.7c0.1-0.2,0.2-0.5,0.3-0.7c0,0.2-0.1,0.5-0.2,0.7C24.3,71.6,24.2,71.8,24,72z"/>
<path class="st6" d="M22.5,71.4c0-0.2,0.1-0.5,0.2-0.7c0.1-0.2,0.2-0.5,0.3-0.7c0,0.2-0.1,0.5-0.2,0.7C22.7,71,22.6,71.2,22.5,71.4z
	"/>
<path class="st6" d="M20.9,70.8c0-0.2,0.1-0.5,0.2-0.7c0.1-0.2,0.2-0.5,0.3-0.7C21.3,70,21.1,70.4,20.9,70.8z"/>
<path class="st6" d="M19.4,70c0-0.2,0.1-0.5,0.2-0.7c0.1-0.2,0.2-0.5,0.3-0.7c0,0.2-0.1,0.5-0.2,0.7C19.7,69.6,19.6,69.8,19.4,70z"
	/>
<path class="st6" d="M18,69.1c0.1-0.5,0.2-0.9,0.5-1.3c0,0.2-0.1,0.5-0.2,0.7C18.2,68.7,18.1,68.9,18,69.1z"/>
<path class="st6" d="M16.5,68.2c0-0.2,0.1-0.5,0.2-0.7c0.1-0.2,0.2-0.5,0.3-0.7c0,0.2-0.1,0.5-0.2,0.7C16.7,67.8,16.6,68,16.5,68.2z
	"/>
<path class="st6" d="M15.2,67.2c0.1-0.5,0.3-0.9,0.5-1.3c0,0.2-0.1,0.5-0.2,0.7C15.4,66.8,15.3,67,15.2,67.2z"/>
<path class="st6" d="M13.9,65.9c0.1-0.5,0.2-0.9,0.5-1.3c0,0.2-0.1,0.5-0.2,0.7C14.1,65.5,14,65.7,13.9,65.9z"/>
<path class="st6" d="M12.9,64.4c0-0.2,0.1-0.4,0.2-0.6c0.1-0.2,0.1-0.4,0.3-0.6c0,0.2-0.1,0.4-0.2,0.6C13.1,64,13,64.2,12.9,64.4z"
	/>
<path class="st6" d="M12.2,62.8c0-0.2,0.1-0.4,0.2-0.6c0-0.2,0.1-0.4,0.3-0.6c0,0.2-0.1,0.4-0.2,0.6C12.4,62.5,12.3,62.7,12.2,62.8z
	"/>
<path class="st8" d="M89.2,108.6c-0.3,0.4-0.9,0.4-1.3,0.1c0,0,0,0-0.1-0.1c-0.3-0.3-0.5-0.8-0.6-1.2c-0.4-1-0.5-2-0.3-3
	c0-0.3,0.2-0.6,0.4-0.8c0.2-0.2,0.5-0.3,0.8-0.3c0.3,0.1,0.6,0.4,0.7,0.8c0.5,1,0.7,2,0.7,3.1C89.5,107.7,89.4,108.2,89.2,108.6"/>
<path class="st14" d="M89.2,108.6c-0.3,0.4-0.9,0.4-1.3,0.1c0,0,0,0-0.1-0.1c-0.3-0.3-0.5-0.8-0.6-1.2c-0.4-1-0.5-2-0.3-3
	c0-0.3,0.2-0.6,0.4-0.8c0.2-0.2,0.5-0.3,0.8-0.3c0.3,0.1,0.6,0.4,0.7,0.8c0.5,1,0.7,2,0.7,3.1C89.5,107.7,89.4,108.2,89.2,108.6"/>
<path class="st8" d="M87.8,111.2c-0.6-0.3-1.3-0.4-1.9-0.2c-0.4,0-0.7,0.2-0.9,0.4c-0.3,0.3-0.3,0.7,0,0.9c0,0,0,0,0,0
	c0.2,0.1,0.4,0.2,0.6,0.2c0.5-0.1,1,0,1.5,0.2c0.2,0.2,0.4,0.5,0.7,0.6c0.3,0.1,0.6-0.1,0.7-0.3c0.1-0.3,0.2-0.6,0.1-0.8
	C88.4,111.7,88.2,111.4,87.8,111.2z"/>
<path class="st8" d="M90.1,109.4c-0.4-0.5-0.5-1.1-0.3-1.7c0.2-0.6,0.5-1.1,1-1.5c0.5-0.5,1.1-0.8,1.8-1.1c0.3-0.1,0.5-0.1,0.8-0.1
	c0.3,0,0.5,0.2,0.7,0.4c0.1,0.4,0.1,0.8-0.2,1.2c-0.3,0.6-0.7,1.2-1.2,1.8c-0.3,0.5-0.8,0.9-1.3,1.1C91,109.7,90.4,109.7,90.1,109.4
	"/>
<path class="st6" d="M89.2,116.3c0-0.1,0-0.2,0-0.2c0-0.2,0-0.4-0.1-0.6c0-0.3-0.1-0.6-0.1-0.9c-0.1-0.4-0.2-0.7-0.3-1.1
	c-0.1-0.4-0.3-0.7-0.6-1c-0.2-0.2-0.4-0.5-0.7-0.6c-0.2-0.1-0.4-0.1-0.6-0.2c-0.1,0-0.2,0-0.2,0c0.1,0,0.2,0,0.2,0
	c0.2,0,0.4,0.1,0.6,0.2c0.3,0.1,0.5,0.3,0.8,0.6c0.2,0.3,0.4,0.6,0.6,1c0.1,0.4,0.3,0.7,0.3,1.1c0.1,0.3,0.1,0.6,0.1,0.9
	c0,0.3,0,0.5,0,0.6C89.2,116.2,89.2,116.2,89.2,116.3z"/>
<path class="st6" d="M89.1,115.8v-0.4c0-0.3,0-0.7,0-1.1c0-1-0.1-2.3-0.3-3.7s-0.4-2.8-0.6-3.7c0-0.2-0.1-0.4-0.1-0.6
	s-0.1-0.3-0.1-0.5l-0.1-0.3c0,0,0-0.1,0-0.1c0,0,0,0.1,0,0.1c0,0.1,0,0.2,0.1,0.3s0.1,0.3,0.1,0.5s0.1,0.4,0.2,0.6
	c0.3,1.2,0.5,2.4,0.6,3.7c0.2,1.4,0.2,2.8,0.2,3.7c0,0.5,0,0.9,0,1.1c0,0.1,0,0.2,0,0.3C89.2,115.8,89.2,115.8,89.1,115.8z"/>
<path class="st6" d="M89.1,113.3c0-0.1,0-0.2,0-0.3c0-0.2,0-0.5,0.1-0.9s0.2-0.8,0.3-1.3c0.1-0.5,0.3-1,0.5-1.5
	c0.4-0.9,0.9-1.7,1.6-2.4c0.1-0.1,0.2-0.2,0.4-0.3l0.2-0.1l0.1-0.1l0.3-0.2c-0.3,0.2-0.6,0.5-0.9,0.8c-0.6,0.7-1.2,1.5-1.5,2.4
	c-0.2,0.5-0.4,1-0.5,1.5c-0.1,0.5-0.2,0.9-0.3,1.3c-0.1,0.3-0.1,0.6-0.1,0.9C89.2,113.1,89.2,113.2,89.1,113.3z"/>
<g class="st15">
	<path d="M67,79.2c-0.1-0.6-0.6-1-1.2-1.2l-8.3-2.5c-0.6-0.2-1.2,0-1.7,0.4l-6.3,6.1c-0.4,0.4-0.6,1.1-0.5,1.7l2.1,8.6
		c0.1,0.6,0.6,1.1,1.2,1.3l8.3,2.5c0.6,0.2,1.2,0,1.7-0.4l6.3-6.1c0.4-0.4,0.6-1.1,0.5-1.7L67,79.2z M68.4,88c0.1,0.4,0,0.7-0.3,1
		l-6.3,6c-0.3,0.3-0.6,0.4-1,0.2l-8.3-2.5c-0.4-0.1-0.6-0.4-0.7-0.7l-2.1-8.6c-0.1-0.4,0-0.7,0.3-1l6.3-6.1c0.3-0.3,0.6-0.4,1-0.2
		l8.4,2.5c0.4,0.1,0.6,0.4,0.7,0.7L68.4,88z"/>
	<path d="M63.6,89.9c0-0.2-0.1-0.4-0.2-0.6c-0.2-0.4-0.4-0.7-0.7-1c-0.2-0.2-0.3-0.3-0.5-0.5l-0.3-0.3l0.4,0.2
		c0.2,0.1,0.5,0.2,0.7,0.2l0,0c0.3,0.1,0.6,0.1,0.9,0.2c0.3,0,0.7,0,1-0.1c0.2-0.1,0.4-0.2,0.6-0.3c0.1-0.1,0.3-0.3,0.3-0.4
		c0.1-0.2,0.2-0.4,0.3-0.7c0.1-0.4,0-0.9-0.2-1.2c-0.2-0.3-0.4-0.5-0.7-0.7c-0.1-0.1-0.2-0.1-0.3-0.2c0.1-0.1,0.1-0.2,0.2-0.4
		c0.2-0.3,0.3-0.6,0.3-0.9c0-0.4-0.1-0.8-0.4-1.2c-0.2-0.2-0.3-0.4-0.6-0.5c-0.2-0.1-0.3-0.2-0.5-0.2c-0.2,0-0.4,0-0.7,0
		c-0.2,0-0.4,0.1-0.6,0.2c-0.4,0.2-0.7,0.4-1,0.7l0,0c-0.2,0.2-0.3,0.3-0.5,0.5L60.8,83c0.1-0.1,0.1-0.3,0.2-0.4s0.1-0.4,0.2-0.7
		c0.1-0.3,0.1-0.6,0.2-0.9c0-0.3,0-0.7-0.1-1c-0.1-0.2-0.2-0.4-0.3-0.6c-0.1-0.1-0.3-0.3-0.4-0.3c-0.2-0.1-0.4-0.2-0.7-0.3
		c-0.4-0.1-0.8,0-1.2,0.2c-0.3,0.2-0.5,0.4-0.7,0.7c-0.1,0.1-0.1,0.2-0.2,0.3l-0.3-0.2c-0.3-0.2-0.6-0.3-0.9-0.3
		c-0.4,0-0.8,0.1-1.2,0.4c-0.2,0.2-0.3,0.3-0.5,0.6c-0.1,0.2-0.2,0.3-0.2,0.5c0,0.2,0,0.4,0,0.7c0,0.2,0.1,0.4,0.2,0.6
		c0.2,0.4,0.4,0.7,0.7,1c0.2,0.2,0.3,0.3,0.5,0.5l0.3,0.3L56,83.9c-0.2-0.1-0.4-0.2-0.7-0.2l0,0c-0.3-0.1-0.6-0.1-0.9-0.2
		c-0.3,0-0.7,0-1,0.1c-0.2,0.1-0.4,0.2-0.6,0.3c-0.1,0.1-0.2,0.3-0.3,0.4c-0.1,0.2-0.2,0.4-0.3,0.7c-0.1,0.4,0,0.9,0.2,1.2
		c0.2,0.3,0.4,0.5,0.7,0.7c0.1,0.1,0.2,0.1,0.3,0.2c-0.1,0.1-0.2,0.2-0.2,0.3C53,87.7,53,88,52.9,88.3c0,0.4,0.1,0.9,0.4,1.2
		c0.2,0.2,0.3,0.3,0.5,0.5c0.2,0.1,0.3,0.2,0.5,0.2l0,0c0.2,0.1,0.4,0.1,0.7,0c0.2,0,0.4-0.1,0.6-0.2c0.4-0.2,0.7-0.4,1-0.7l0.1-0.1
		L57,89l0.2-0.2l0.3-0.3l-0.2,0.4c-0.1,0.2-0.1,0.4-0.2,0.7c-0.1,0.3-0.1,0.6-0.2,0.9c0,0.3,0,0.7,0.1,1c0.1,0.2,0.2,0.4,0.3,0.6
		c0.1,0.1,0.3,0.3,0.4,0.3c0.2,0.1,0.4,0.2,0.7,0.3c0.4,0.1,0.8,0,1.2-0.2c0.3-0.2,0.5-0.4,0.7-0.7c0.1-0.1,0.1-0.2,0.2-0.3
		c0.1,0.1,0.2,0.2,0.3,0.2c0.3,0.2,0.6,0.3,0.9,0.3c0.4,0,0.8-0.1,1.2-0.4c0.3-0.3,0.6-0.6,0.7-1.1C63.6,90.3,63.6,90.1,63.6,89.9z"
		/>
</g>
<path class="st8" d="M66.8,79.6c-0.1-0.6-0.6-1.1-1.2-1.3l-8.3-2.5c-0.6-0.2-1.2,0-1.7,0.4l-6.3,6.1c-0.4,0.4-0.6,1.1-0.5,1.7
	l2.1,8.6c0.1,0.6,0.6,1.1,1.2,1.3l8.3,2.5c0.6,0.2,1.2,0,1.7-0.4l6.3-6.1c0.4-0.4,0.6-1.1,0.5-1.7L66.8,79.6z M68.2,88.4
	c0.1,0.4,0,0.7-0.3,1l-6.3,6.1c-0.3,0.3-0.6,0.4-1,0.2l-8.3-2.5c-0.4-0.1-0.6-0.4-0.7-0.8l-2.1-8.6c-0.1-0.4,0-0.7,0.3-1l6.2-6.1
	c0.3-0.3,0.6-0.4,1-0.2l8.3,2.5c0.4,0.1,0.6,0.4,0.7,0.7L68.2,88.4z"/>
<path class="st8" d="M63.3,90.3c0-0.2-0.1-0.4-0.2-0.6c-0.2-0.4-0.4-0.7-0.7-1c-0.2-0.2-0.3-0.3-0.5-0.5c-0.1-0.1-0.2-0.2-0.3-0.3
	L62,88c0.2,0.1,0.4,0.2,0.7,0.2l0,0c0.3,0.1,0.6,0.1,0.9,0.2c0.3,0,0.7,0,1-0.1c0.2-0.1,0.4-0.2,0.6-0.3c0.1-0.1,0.3-0.3,0.3-0.4
	c0.1-0.2,0.2-0.4,0.3-0.7c0.1-0.4,0-0.9-0.2-1.2c-0.2-0.3-0.4-0.5-0.7-0.7c-0.1-0.1-0.2-0.1-0.3-0.2c0.1-0.1,0.2-0.2,0.2-0.3
	c0.4-0.7,0.4-1.5-0.1-2.1c-0.2-0.2-0.3-0.4-0.6-0.5c-0.2-0.1-0.3-0.2-0.5-0.2c-0.2,0-0.4,0-0.7,0c-0.2,0-0.4,0.1-0.6,0.2
	c-0.4,0.2-0.7,0.4-1,0.7l0,0c-0.2,0.2-0.3,0.3-0.5,0.5l-0.3,0.3c0.1-0.1,0.1-0.3,0.2-0.4s0.1-0.4,0.2-0.7C61,82,61,81.7,61,81.4
	c0-0.3,0-0.7-0.1-1c-0.1-0.2-0.2-0.4-0.3-0.6c-0.1-0.1-0.3-0.3-0.4-0.3c-0.2-0.1-0.4-0.2-0.7-0.3c-0.4-0.1-0.8,0-1.2,0.2
	c-0.3,0.2-0.5,0.4-0.7,0.7c-0.1,0.1-0.1,0.2-0.2,0.3c-0.1-0.1-0.2-0.2-0.3-0.2c-0.3-0.2-0.6-0.3-0.9-0.3c-0.4,0-0.8,0.1-1.2,0.4
	c-0.2,0.2-0.3,0.3-0.5,0.6c-0.1,0.2-0.2,0.3-0.2,0.5c0,0.2,0,0.4,0,0.7c0,0.2,0.1,0.4,0.2,0.6c0.2,0.4,0.4,0.7,0.7,1
	c0.2,0.2,0.3,0.3,0.5,0.5l0.3,0.3l-0.4-0.2c-0.2-0.1-0.4-0.2-0.7-0.2l0,0c-0.3-0.1-0.6-0.1-0.9-0.2c-0.3,0-0.7,0-1,0.1
	c-0.2,0.1-0.4,0.2-0.6,0.3c-0.1,0.1-0.2,0.3-0.3,0.4c-0.1,0.2-0.2,0.4-0.3,0.7c-0.1,0.4,0,0.9,0.2,1.2c0.2,0.3,0.4,0.5,0.7,0.7
	c0.1,0.1,0.2,0.1,0.3,0.2c-0.1,0.1-0.2,0.2-0.2,0.3c-0.2,0.3-0.3,0.6-0.3,0.9c0,0.4,0.1,0.8,0.4,1.2c0.2,0.2,0.3,0.4,0.5,0.5
	c0.2,0.1,0.3,0.2,0.5,0.2l0,0c0.2,0.1,0.4,0.1,0.7,0c0.2,0,0.4-0.1,0.6-0.2c0.4-0.2,0.7-0.4,1-0.7l0.1-0.1l0.2-0.2l0.2-0.2
	c0.1-0.1,0.2-0.2,0.3-0.3c-0.1,0.1-0.1,0.3-0.2,0.4s-0.1,0.4-0.2,0.7c-0.1,0.3-0.1,0.6-0.2,0.9c0,0.3,0,0.7,0.1,1
	c0.1,0.2,0.2,0.4,0.3,0.6c0.1,0.1,0.3,0.3,0.4,0.3c0.2,0.1,0.4,0.2,0.7,0.3c0.4,0.1,0.8,0,1.2-0.2c0.3-0.2,0.5-0.4,0.7-0.7
	c0.1-0.1,0.1-0.2,0.2-0.3c0.1,0.1,0.2,0.2,0.3,0.2c0.3,0.2,0.6,0.3,0.9,0.3c0.4,0,0.8-0.2,1.1-0.4c0.3-0.3,0.6-0.6,0.7-1.1
	C63.4,90.7,63.4,90.5,63.3,90.3z"/>
<path class="st1" d="M31.4,93.1c0.1-0.3,0.1-0.6,0-0.8l-2.2-3.6c-0.2-0.3-0.4-0.4-0.7-0.4l-4.2,0.2c-0.3,0-0.6,0.2-0.7,0.4l-2.1,3.8
	c-0.1,0.3-0.1,0.6,0,0.8l2.2,3.6c0.2,0.3,0.4,0.4,0.7,0.4l4.2-0.2c0.3,0,0.6-0.2,0.7-0.4L31.4,93.1z M29,96.7
	c-0.1,0.2-0.2,0.3-0.4,0.3l-4.2,0.2c-0.2,0-0.3-0.1-0.4-0.2l-2.2-3.6c-0.1-0.2-0.1-0.3,0-0.5l2.1-3.8c0.1-0.2,0.2-0.3,0.4-0.3
	l4.2-0.2c0.2,0,0.3,0.1,0.4,0.2l2.1,3.6c0.1,0.2,0.1,0.3,0,0.5L29,96.7z"/>
<path class="st1" d="M26.7,95.8c0.1-0.1,0.1-0.2,0.1-0.3c0-0.2,0.1-0.4,0.1-0.6v-0.3c0-0.1,0-0.1,0-0.2l0.1,0.2
	c0,0.1,0.1,0.2,0.2,0.3l0,0c0.1,0.1,0.2,0.2,0.3,0.4c0.1,0.1,0.2,0.2,0.4,0.3c0.1,0,0.2,0.1,0.3,0.1c0.1,0,0.2,0,0.3,0
	c0.1,0,0.2-0.1,0.3-0.2c0.3-0.2,0.4-0.6,0.3-1c0-0.1,0-0.1-0.1-0.2h0.2c0.2,0,0.3-0.1,0.4-0.2c0.1-0.2,0.2-0.3,0.3-0.6
	c0-0.1,0-0.2,0-0.3c0-0.1-0.1-0.2-0.1-0.3c-0.1-0.1-0.1-0.2-0.2-0.2c-0.1-0.1-0.2-0.1-0.3-0.1c-0.2-0.1-0.4-0.1-0.6-0.1l0,0h-0.3H28
	l0.2-0.1l0.3-0.2c0.1-0.1,0.2-0.2,0.4-0.3c0.1-0.1,0.2-0.2,0.3-0.4c0-0.1,0.1-0.2,0.1-0.3c0-0.1,0-0.2,0-0.3c0-0.1-0.1-0.2-0.1-0.3
	c-0.1-0.2-0.3-0.3-0.5-0.3c-0.1,0-0.3,0-0.5,0l-0.2,0.1c0-0.1,0-0.1,0-0.2c0-0.2-0.1-0.3-0.2-0.4c-0.1-0.1-0.3-0.2-0.5-0.2
	c-0.1,0-0.2,0-0.3,0c-0.1,0-0.2,0.1-0.3,0.1c-0.1,0.1-0.2,0.1-0.2,0.2c-0.1,0.1-0.1,0.2-0.1,0.3c-0.1,0.2-0.1,0.4-0.1,0.6
	c0,0.1,0,0.2,0,0.3c0,0.1,0,0.1,0,0.2L26,91.1c0-0.1-0.1-0.2-0.2-0.3l0,0c-0.1-0.1-0.2-0.2-0.3-0.4c-0.1-0.1-0.2-0.2-0.4-0.3
	c-0.1,0-0.2-0.1-0.3-0.1c-0.1,0-0.2,0-0.3,0c-0.1,0-0.2,0.1-0.3,0.2c-0.2,0.1-0.3,0.3-0.3,0.5c0,0.2,0,0.3,0,0.5
	c0,0.1,0,0.1,0.1,0.2h-0.2c-0.2,0-0.3,0.1-0.4,0.2c-0.1,0.2-0.2,0.3-0.2,0.6c0,0.1,0,0.2,0,0.3c0,0.1,0.1,0.2,0.1,0.3l0,0
	c0.1,0.1,0.1,0.2,0.2,0.2c0.1,0.1,0.2,0.1,0.3,0.1c0.2,0.1,0.4,0.1,0.6,0.1h0.3H25l-0.2,0.1l-0.3,0.2c-0.1,0.1-0.2,0.2-0.4,0.3
	c-0.1,0.1-0.2,0.2-0.3,0.4c0,0.1-0.1,0.2-0.1,0.3c0,0.1,0,0.2,0,0.3c0,0.1,0.1,0.2,0.1,0.3c0.2,0.3,0.6,0.4,1,0.3l0.2-0.1v0.2
	c0,0.2,0.1,0.3,0.2,0.4c0.1,0.1,0.3,0.2,0.5,0.2c0.2,0,0.4-0.1,0.6-0.2C26.6,96,26.6,95.9,26.7,95.8z"/>
<path class="st3" d="M31.2,93.2c0.1-0.3,0.1-0.6,0-0.8L29,88.7c-0.2-0.3-0.4-0.4-0.7-0.4l-4.2,0.2c-0.3,0-0.6,0.2-0.7,0.4l-2.1,3.8
	c-0.2,0.3-0.2,0.6,0,0.8l2.1,3.6c0.2,0.3,0.4,0.4,0.7,0.4l4.2-0.2c0.3,0,0.6-0.2,0.7-0.4L31.2,93.2z M28.8,96.8
	c-0.1,0.2-0.3,0.2-0.4,0.3l-4.2,0.2c-0.2,0-0.3-0.1-0.4-0.2l-2.2-3.6c-0.1-0.2-0.1-0.3,0-0.5l2.1-3.8c0.1-0.2,0.2-0.3,0.4-0.3
	l4.2-0.2c0.2,0,0.3,0.1,0.4,0.2l2.2,3.6c0.1,0.2,0.1,0.3,0,0.5L28.8,96.8z"/>
<path class="st3" d="M26.5,95.9c0.1-0.1,0.1-0.2,0.1-0.3c0.1-0.2,0.1-0.4,0.1-0.6c0-0.1,0-0.2,0-0.3c0-0.1,0-0.1,0-0.2l0.1,0.2
	c0,0.1,0.1,0.2,0.2,0.3l0,0c0.1,0.1,0.2,0.3,0.3,0.4c0.1,0.1,0.2,0.2,0.4,0.3c0.1,0,0.2,0.1,0.3,0.1c0.1,0,0.2,0,0.3,0
	c0.1,0,0.2-0.1,0.3-0.2c0.2-0.1,0.3-0.3,0.3-0.5c0-0.2,0-0.3,0-0.5c0-0.1,0-0.1-0.1-0.2h0.2c0.2,0,0.3-0.1,0.4-0.2
	c0.1-0.2,0.2-0.4,0.2-0.6c0-0.1,0-0.2,0-0.3c0-0.1-0.1-0.2-0.1-0.3c-0.1-0.1-0.1-0.2-0.2-0.2c-0.1-0.1-0.2-0.1-0.3-0.1
	c-0.2,0-0.4-0.1-0.6-0.1l0,0H28h-0.2l0.2-0.1l0.3-0.2c0.1-0.1,0.2-0.2,0.4-0.3c0.1-0.1,0.2-0.2,0.3-0.4c0.1-0.1,0.1-0.2,0.1-0.3
	c0-0.1,0-0.2,0-0.3c0-0.1-0.1-0.2-0.1-0.3c-0.1-0.2-0.3-0.3-0.5-0.3c-0.2,0-0.3,0-0.5,0l-0.2,0.1c0-0.1,0-0.1,0-0.2
	c0-0.2-0.1-0.3-0.2-0.4c-0.1-0.1-0.3-0.2-0.5-0.2c-0.1,0-0.2,0-0.4,0c-0.1,0-0.2,0.1-0.2,0.1c-0.2,0.1-0.3,0.2-0.4,0.3
	c-0.1,0.1-0.1,0.2-0.1,0.3c-0.1,0.2-0.1,0.4-0.1,0.6c0,0.1,0,0.2,0,0.3s0,0.1,0,0.2l-0.1-0.2L25.5,91l0,0c-0.1-0.1-0.2-0.2-0.3-0.4
	c-0.1-0.1-0.2-0.2-0.4-0.3c-0.1,0-0.2-0.1-0.3-0.1c-0.1,0-0.2,0-0.3,0c-0.1,0-0.2,0.1-0.3,0.2c-0.3,0.2-0.4,0.6-0.3,1l0.1,0.2h-0.2
	c-0.1,0.1-0.3,0.1-0.4,0.2c-0.1,0.2-0.2,0.4-0.2,0.6c0,0.1,0,0.2,0,0.3c0,0.1,0.1,0.2,0.1,0.3l0,0c0.1,0.1,0.1,0.2,0.2,0.2
	c0.1,0.1,0.2,0.1,0.3,0.1c0.2,0,0.4,0.1,0.6,0.1h0.3h0.2l-0.2,0.1l-0.3,0.2c-0.1,0.1-0.2,0.2-0.4,0.3c-0.1,0.1-0.2,0.2-0.3,0.4
	c-0.1,0.1-0.1,0.2-0.1,0.3c0,0.1,0,0.2,0,0.3c0,0.1,0.1,0.2,0.1,0.3c0.1,0.2,0.3,0.3,0.5,0.3c0.2,0,0.3,0,0.5,0l0.2-0.1
	c0,0.1,0,0.1,0,0.2c0,0.1,0.1,0.3,0.2,0.4c0.1,0.1,0.3,0.2,0.5,0.2c0.2,0,0.4-0.1,0.6-0.2C26.2,96.1,26.4,96,26.5,95.9z"/>
<path class="st1" d="M95.2,69.8c-0.2-0.3-0.6-0.5-0.9-0.5L89,69.7c-0.4,0-0.7,0.2-0.8,0.6L85.9,75c-0.1,0.3-0.1,0.7,0.1,1l3,4.4
	c0.2,0.3,0.6,0.5,0.9,0.5l5.2-0.3c0.4,0,0.7-0.2,0.8-0.6l2.2-4.7c0.1-0.3,0.1-0.7-0.1-1L95.2,69.8z M97.8,74.5
	c0.1,0.2,0.1,0.4,0,0.6l-2.2,4.7c-0.1,0.2-0.3,0.3-0.5,0.3l-5.2,0.3c-0.2,0-0.4-0.1-0.6-0.3l-3-4.4c-0.1-0.2-0.1-0.4-0.1-0.6
	l2.2-4.7c0.1-0.2,0.3-0.3,0.5-0.3l5.2-0.3c0.2,0,0.4,0.1,0.6,0.3L97.8,74.5z"/>
<path class="st1" d="M95.5,76.6c-0.1-0.1-0.2-0.2-0.3-0.3c-0.2-0.2-0.4-0.3-0.6-0.4l-0.4-0.2L94,75.5h0.3h0.4l0,0
	c0.2,0,0.4,0,0.6-0.1c0.2-0.1,0.4-0.1,0.5-0.3c0.1-0.1,0.2-0.2,0.3-0.3c0-0.1,0.1-0.2,0.1-0.3c0-0.1,0-0.3,0-0.4
	c0-0.3-0.2-0.5-0.4-0.7c-0.1-0.1-0.3-0.2-0.5-0.3c-0.1,0-0.2,0-0.2,0c0-0.1,0-0.2,0-0.2c0.1-0.2,0.1-0.4,0-0.6
	c-0.1-0.2-0.3-0.5-0.5-0.6c-0.1-0.1-0.3-0.1-0.4-0.2c-0.1,0-0.2,0-0.3,0c-0.1,0-0.3,0.1-0.4,0.1c-0.1,0.1-0.2,0.2-0.3,0.3
	c-0.2,0.2-0.3,0.4-0.4,0.6l0,0c-0.1,0.1-0.1,0.3-0.2,0.4l-0.1,0.2V73c0-0.1,0-0.3,0-0.4c0-0.2,0-0.4-0.1-0.6
	c-0.1-0.2-0.1-0.4-0.3-0.6c-0.1-0.1-0.2-0.2-0.3-0.3c-0.1-0.1-0.2-0.1-0.3-0.1c-0.1,0-0.3,0-0.4,0c-0.2,0-0.5,0.2-0.6,0.3
	c-0.1,0.2-0.2,0.3-0.2,0.5c0,0.1,0,0.2,0,0.2c-0.1,0-0.1,0-0.2-0.1c-0.2-0.1-0.4-0.1-0.6,0c-0.2,0.1-0.4,0.3-0.6,0.5
	c-0.1,0.1-0.1,0.3-0.1,0.4c0,0.1,0,0.2,0,0.3c0,0.1,0.1,0.3,0.1,0.4c0.1,0.1,0.2,0.2,0.3,0.3c0.2,0.2,0.4,0.3,0.6,0.4l0.4,0.2
	l0.3,0.1H90h-0.4l0,0c-0.2,0-0.4,0-0.5,0.1c-0.2,0-0.4,0.1-0.5,0.3c-0.1,0.1-0.2,0.2-0.3,0.3c0,0.1-0.1,0.2-0.1,0.3
	c0,0.1,0,0.3,0,0.4c0.1,0.5,0.4,0.8,0.9,0.9c0.1,0,0.1,0,0.2,0c0,0.1,0,0.1,0,0.2c-0.1,0.2-0.1,0.4,0,0.6c0.1,0.2,0.3,0.5,0.5,0.6
	c0.1,0.1,0.3,0.1,0.4,0.2c0.1,0,0.2,0,0.3,0l0,0c0.1,0,0.3-0.1,0.4-0.1c0.1-0.1,0.2-0.2,0.3-0.3c0.2-0.2,0.3-0.4,0.4-0.6v-0.1
	l0.1-0.2l0.1-0.1l0.1-0.2v0.3v0.4c0,0.2,0.1,0.4,0.1,0.6c0.1,0.2,0.1,0.4,0.3,0.5c0.1,0.1,0.2,0.2,0.3,0.3c0.1,0.1,0.2,0.1,0.3,0.1
	c0.1,0,0.3,0,0.4,0c0.2,0,0.5-0.2,0.6-0.3c0.1-0.2,0.2-0.3,0.2-0.5c0-0.1,0-0.2,0-0.2c0.1,0,0.1,0.1,0.2,0.1c0.2,0.1,0.4,0.1,0.6,0
	c0.2-0.1,0.4-0.2,0.6-0.5c0.1-0.2,0.2-0.5,0.2-0.8C95.6,76.8,95.6,76.7,95.5,76.6z"/>
<path class="st3" d="M95.1,70.1c-0.2-0.3-0.6-0.5-0.9-0.5L88.9,70c-0.4,0-0.7,0.2-0.8,0.6l-2.2,4.7c-0.1,0.3-0.1,0.7,0.1,1l3,4.4
	c0.2,0.3,0.6,0.5,0.9,0.5l5.2-0.3c0.4,0,0.7-0.2,0.9-0.6l2.2-4.7c0.1-0.3,0.1-0.7-0.1-1L95.1,70.1z M97.7,74.8
	c0.1,0.2,0.1,0.4,0,0.6l-2.2,4.7c-0.1,0.2-0.3,0.3-0.5,0.3l-5.2,0.3c-0.2,0-0.4-0.1-0.6-0.3l-3-4.4c-0.1-0.2-0.1-0.4-0.1-0.6
	l2.2-4.7c0.1-0.2,0.3-0.3,0.5-0.3l5.2-0.3c0.2,0,0.4,0.1,0.6,0.3L97.7,74.8z"/>
<path class="st3" d="M95.4,76.9c-0.1-0.1-0.2-0.2-0.3-0.3c-0.2-0.2-0.4-0.3-0.6-0.4c-0.1-0.1-0.3-0.1-0.4-0.2l-0.2-0.1h0.3
	c0.1,0,0.3,0,0.4,0l0,0c0.2,0,0.4,0,0.5-0.1c0.2,0,0.4-0.1,0.5-0.2c0.1-0.1,0.2-0.2,0.3-0.3c0-0.1,0.1-0.2,0.1-0.3
	c0-0.1,0-0.3,0-0.4c-0.1-0.5-0.4-0.8-0.9-0.9c-0.1,0-0.1,0-0.2,0c0-0.1,0-0.1,0-0.2c0.1-0.2,0.1-0.4,0-0.6c-0.1-0.2-0.3-0.5-0.5-0.6
	C94.3,72.1,94.2,72,94,72c-0.1,0-0.2,0-0.3,0c-0.1,0-0.3,0.1-0.4,0.1c-0.1,0.1-0.2,0.2-0.3,0.3c-0.2,0.2-0.3,0.4-0.4,0.6l0,0
	c-0.1,0.1-0.1,0.3-0.2,0.4l-0.1,0.2v-0.3v-0.4c0-0.2-0.1-0.4-0.1-0.6c0-0.2-0.1-0.4-0.3-0.6c-0.1-0.1-0.2-0.2-0.3-0.3
	c-0.1-0.1-0.2-0.1-0.3-0.1c-0.1,0-0.3,0-0.4,0c-0.3,0-0.5,0.2-0.7,0.3c-0.1,0.2-0.2,0.3-0.2,0.5c0,0.1,0,0.2,0,0.2l-0.2-0.1
	c-0.2-0.1-0.4-0.1-0.6,0c-0.2,0.1-0.4,0.2-0.6,0.5c-0.1,0.1-0.1,0.3-0.2,0.4c0,0.1,0,0.2,0,0.3c0,0.1,0.1,0.3,0.1,0.4
	c0.1,0.1,0.2,0.2,0.3,0.3c0.2,0.2,0.4,0.3,0.6,0.4l0.4,0.2l0.2,0.1h-0.3h-0.4l0,0c-0.2,0-0.4,0-0.6,0.1c-0.2,0.1-0.4,0.1-0.5,0.3
	c-0.1,0.1-0.2,0.2-0.3,0.3C88.1,75.8,88,75.9,88,76c0,0.1,0,0.3,0,0.4c0,0.3,0.2,0.5,0.4,0.7c0.1,0.1,0.3,0.2,0.5,0.3
	c0.1,0,0.2,0,0.2,0c0,0.1,0,0.1-0.1,0.2c-0.1,0.2-0.1,0.4,0,0.6c0.1,0.2,0.3,0.5,0.5,0.6c0.1,0.1,0.3,0.1,0.4,0.2c0.1,0,0.2,0,0.3,0
	l0,0c0.1,0,0.3-0.1,0.4-0.1c0.1-0.1,0.2-0.2,0.3-0.3c0.2-0.2,0.3-0.3,0.4-0.5v-0.1l0.1-0.2l0.1-0.1l0.1-0.2v0.3c0,0.1,0,0.3,0,0.4
	c0,0.2,0,0.4,0.1,0.6c0.1,0.2,0.1,0.4,0.3,0.6c0.1,0.1,0.2,0.2,0.3,0.3c0.1,0.1,0.2,0.1,0.3,0.1c0.1,0,0.3,0,0.4,0
	c0.3,0,0.5-0.2,0.7-0.3c0.1-0.2,0.2-0.3,0.2-0.5c0-0.1,0-0.2,0-0.2c0.1,0,0.1,0.1,0.2,0.1c0.2,0.1,0.4,0.1,0.6,0
	c0.2-0.1,0.4-0.2,0.6-0.5c0.1-0.2,0.2-0.5,0.2-0.8C95.5,77.1,95.5,77,95.4,76.9z"/>
<path class="st1" d="M65.8,24.5c0-0.2-0.2-0.3-0.3-0.4l-2.4-0.7c-0.2-0.1-0.4,0-0.5,0.1l-1.8,1.8c-0.1,0.1-0.2,0.3-0.1,0.5l0.6,2.5
	c0,0.2,0.2,0.3,0.3,0.4l2.4,0.7c0.2,0,0.4,0,0.5-0.1l1.8-1.8c0.1-0.1,0.2-0.3,0.1-0.5L65.8,24.5z M66.3,27c0,0.1,0,0.2-0.1,0.3
	l-1.8,1.8c-0.1,0.1-0.2,0.1-0.3,0.1l-2.4-0.7c-0.1,0-0.2-0.1-0.2-0.2l-0.6-2.5c0-0.1,0-0.2,0.1-0.3l1.8-1.8c0.1-0.1,0.2-0.1,0.3-0.1
	l2.4,0.7c0.1,0,0.2,0.1,0.2,0.2L66.3,27z"/>
<path class="st1" d="M64.9,27.6c0-0.1,0-0.1-0.1-0.2c-0.1-0.1-0.1-0.2-0.2-0.3L64.5,27l-0.1-0.1h0.1l0.2,0.1l0,0c0.1,0,0.2,0,0.3,0
	c0.1,0,0.2,0,0.3,0c0.1,0,0.1,0,0.2-0.1c0,0,0.1-0.1,0.1-0.1c0-0.1,0.1-0.1,0.1-0.2c0-0.1,0-0.3,0-0.4c0-0.1-0.1-0.1-0.2-0.2
	L65.3,26c0,0,0-0.1,0.1-0.1c0.1-0.1,0.1-0.2,0.1-0.3c0-0.1,0-0.2-0.1-0.4c0-0.1-0.1-0.1-0.2-0.1c0,0-0.1,0-0.2-0.1
	c-0.1,0-0.1,0-0.2,0c-0.1,0-0.1,0-0.2,0.1c-0.1,0.1-0.2,0.1-0.3,0.2l0,0l-0.2,0.1l-0.1,0.1c0,0,0-0.1,0-0.1l0.1-0.2
	c0-0.1,0-0.2,0-0.3c0-0.1,0-0.2,0-0.3c0-0.1-0.1-0.1-0.1-0.2c0,0-0.1-0.1-0.1-0.1c-0.1,0-0.1-0.1-0.2-0.1c-0.1,0-0.2,0-0.3,0
	c-0.1,0-0.1,0.1-0.2,0.2c0,0,0,0.1,0,0.1l-0.1-0.1c-0.1,0-0.2-0.1-0.3-0.1c-0.1,0-0.2,0-0.3,0.1c-0.1,0-0.1,0.1-0.1,0.2
	c0,0,0,0.1-0.1,0.1c0,0.1,0,0.3,0.1,0.4c0.1,0.1,0.1,0.2,0.2,0.3l0.1,0.1l0.1,0.1l-0.1,0l-0.2-0.1l0,0c-0.1,0-0.2,0-0.3,0
	c-0.1,0-0.2,0-0.3,0c-0.1,0-0.1,0.1-0.2,0.1c0,0-0.1,0.1-0.1,0.1c0,0.1-0.1,0.1-0.1,0.2c0,0.1,0,0.2,0,0.4c0.1,0.1,0.1,0.1,0.2,0.2
	l0.1,0l-0.1,0.1c-0.1,0.1-0.1,0.2-0.1,0.3c0,0.1,0,0.3,0.1,0.4c0,0.1,0.1,0.1,0.2,0.1l0.2,0.1l0,0c0.1,0,0.1,0,0.2,0
	c0.1,0,0.1,0,0.2-0.1c0.1-0.1,0.2-0.1,0.3-0.2l0,0l0.1-0.1l0-0.1l0.1-0.1c0,0,0,0.1,0,0.1L63,27.6c0,0.1,0,0.2,0,0.3
	c0,0.1,0,0.2,0,0.3c0,0.1,0,0.1,0.1,0.2l0.1,0.1c0.1,0,0.1,0.1,0.2,0.1c0.1,0,0.2,0,0.3-0.1c0.1,0,0.2-0.1,0.2-0.2c0,0,0-0.1,0-0.1
	l0.1,0.1c0.1,0.1,0.2,0.1,0.3,0.1c0.1,0,0.2,0,0.3-0.1c0.1-0.1,0.2-0.2,0.2-0.3C64.9,27.8,64.9,27.7,64.9,27.6z"/>
<path class="st3" d="M65.8,24.6c0-0.2-0.2-0.3-0.3-0.4L63,23.5c-0.2-0.1-0.4,0-0.5,0.1l-1.8,1.8c-0.1,0.1-0.2,0.3-0.1,0.5l0.6,2.5
	c0,0.2,0.2,0.3,0.4,0.4l2.4,0.7c0.2,0,0.4,0,0.5-0.1l1.8-1.8c0.1-0.1,0.2-0.3,0.1-0.5L65.8,24.6z M66.2,27.2c0,0.1,0,0.2-0.1,0.3
	l-1.8,1.8c-0.1,0.1-0.2,0.1-0.3,0.1l-2.4-0.7c-0.1,0-0.2-0.1-0.2-0.2l-0.6-2.5c0-0.1,0-0.2,0.1-0.3l1.8-1.8c0.1-0.1,0.2-0.1,0.3-0.1
	l2.4,0.7c0.1,0,0.2,0.1,0.2,0.2L66.2,27.2z"/>
<path class="st3" d="M64.8,27.7c0-0.1,0-0.1-0.1-0.2c-0.1-0.1-0.1-0.2-0.2-0.3l-0.2-0.1L64.3,27h0.1l0.2,0.1l0,0c0.1,0,0.2,0,0.3,0
	c0.1,0,0.2,0,0.3,0c0.1,0,0.1-0.1,0.2-0.1c0,0,0.1-0.1,0.1-0.1c0-0.1,0.1-0.1,0.1-0.2c0-0.1,0-0.3-0.1-0.4c0-0.1-0.1-0.2-0.2-0.2
	h-0.1l0.1-0.1c0-0.1,0.1-0.2,0.1-0.3c0-0.1,0-0.3-0.1-0.4c0-0.1-0.1-0.1-0.2-0.1c0,0-0.1-0.1-0.1-0.1c-0.1,0-0.1,0-0.2,0
	c-0.1,0-0.1,0-0.2,0.1c-0.1,0.1-0.2,0.1-0.3,0.2l0,0L64,25.6c0,0-0.1,0.1-0.1,0.1c0,0,0-0.1,0-0.1c0-0.1,0-0.1,0-0.2
	c0-0.1,0-0.2,0-0.3c0-0.1,0-0.2,0-0.3c0-0.1-0.1-0.1-0.1-0.2c0,0-0.1-0.1-0.1-0.1c-0.1,0-0.1-0.1-0.2-0.1c-0.1,0-0.3,0-0.4,0
	c-0.1,0.1-0.1,0.1-0.2,0.2v0.1l0-0.1c-0.1-0.1-0.2-0.1-0.3-0.1c-0.1,0-0.2,0-0.3,0.1c-0.1,0.1-0.1,0.1-0.1,0.2c0,0-0.1,0.1-0.1,0.1
	c0,0.1,0,0.1,0,0.2c0,0.1,0,0.1,0.1,0.2c0.1,0.1,0.1,0.2,0.2,0.3l0.1,0.1l0.1,0.1l-0.1,0l-0.2-0.1l0,0l-0.3,0c-0.1,0-0.2,0-0.3,0
	c-0.1,0-0.1,0.1-0.2,0.1c0,0-0.1,0.1-0.1,0.1c0,0.1-0.1,0.1-0.1,0.2c0,0.1,0,0.2,0.1,0.4c0.1,0.1,0.1,0.1,0.2,0.2c0,0,0.1,0,0.1,0
	c0,0,0,0.1-0.1,0.1c-0.1,0.1-0.1,0.2-0.1,0.3c0,0.1,0,0.3,0.1,0.4c0,0.1,0.1,0.1,0.2,0.1l0.2,0.1l0,0c0.1,0,0.1,0,0.2,0
	c0.1,0,0.1,0,0.2-0.1c0.1-0.1,0.2-0.1,0.3-0.2l0,0l0.1-0.1v0l0.1-0.1l0,0.1c0,0.1,0,0.1,0,0.2c0,0.1,0,0.2,0,0.3c0,0.1,0,0.2,0,0.3
	c0,0.1,0,0.1,0.1,0.2c0,0,0.1,0.1,0.1,0.1c0.1,0,0.1,0.1,0.2,0.1c0.1,0,0.3,0,0.4-0.1c0.1-0.1,0.1-0.1,0.2-0.2c0,0,0-0.1,0-0.1
	l0.1,0.1c0.1,0.1,0.2,0.1,0.3,0.1c0.1,0,0.2,0,0.3-0.1c0.1-0.1,0.2-0.2,0.2-0.3C64.8,27.9,64.8,27.8,64.8,27.7z"/>
<g class="st15">
	<g>
		<g>
			<defs>
				<polygon id="SVGID_1_" points="78.1,39.6 84.2,30.8 93.3,34.1 87.2,42.9 				"/>
			</defs>
			<clipPath id="SVGID_2_">
				<use xlink:href="#SVGID_1_"  style="overflow:visible;"/>
			</clipPath>
			<g class="st16">
				<path d="M82.9,41c-0.1,0-0.2-0.1-0.2-0.2l-2.4-3.2c-0.1-0.1-0.1-0.3,0-0.5l2.5-3.7c0.1-0.2,0.3-0.3,0.5-0.3l5-0.5
					c0.1,0,0.2,0,0.3,0c0.1,0,0.2,0.1,0.2,0.1l2.4,3.2c0.1,0.1,0.1,0.3,0,0.5l-2.5,3.7c-0.1,0.2-0.3,0.3-0.5,0.3l-5,0.5
					C83.1,41,83,41,82.9,41 M88.7,32.4c-0.2-0.1-0.3-0.1-0.5-0.1l-5,0.5c-0.3,0-0.7,0.2-0.9,0.5L79.9,37c-0.2,0.2-0.2,0.6,0,0.8
					l2.4,3.2c0.1,0.1,0.2,0.2,0.4,0.3c0.2,0.1,0.3,0.1,0.5,0.1l5-0.5c0.3,0,0.6-0.2,0.8-0.5l2.5-3.7c0.2-0.2,0.2-0.6,0-0.8l-2.4-3.2
					C89,32.5,88.9,32.4,88.7,32.4"/>
				<path d="M88.4,34.3l-0.2-0.1c-0.2,0-0.4,0-0.5,0.1l-0.2,0.1v-0.2c0-0.1-0.1-0.3-0.3-0.3c-0.1,0-0.1-0.1-0.2-0.1
					c-0.1,0-0.3-0.1-0.4-0.1c-0.1,0-0.3,0-0.4,0.1c-0.1,0-0.2,0.1-0.3,0.1c-0.1,0.1-0.2,0.1-0.3,0.2c-0.1,0.1-0.1,0.2-0.2,0.3
					c-0.1,0.2-0.1,0.4-0.1,0.6c0,0.1,0,0.2,0,0.3v0.2l-0.1-0.2c-0.1-0.1-0.1-0.2-0.2-0.3c-0.1-0.1-0.2-0.2-0.3-0.3
					c-0.1-0.1-0.2-0.2-0.4-0.2h-0.1c-0.1,0-0.2,0-0.4,0c-0.1,0-0.2,0-0.3,0.1c-0.1,0-0.3,0.1-0.4,0.2c-0.2,0.1-0.3,0.3-0.4,0.5
					c-0.1,0.1-0.1,0.3,0,0.4l0.1,0.2h-0.2c-0.2,0.1-0.3,0.1-0.5,0.3c-0.2,0.1-0.3,0.3-0.3,0.5c0,0.1,0,0.2,0,0.3
					c0,0.1,0.1,0.2,0.1,0.2c0.1,0.1,0.2,0.1,0.3,0.2h0.1c0.1,0,0.2,0.1,0.3,0.1c0.2,0,0.5,0,0.7,0h0.3h0.1h0.2l-0.2,0.1
					c-0.1,0.1-0.2,0.1-0.3,0.2c-0.2,0.1-0.3,0.2-0.4,0.3c-0.1,0.1-0.3,0.2-0.4,0.4c-0.1,0.1-0.1,0.2-0.1,0.3c0,0.1,0,0.2,0,0.2
					c0,0.1,0.1,0.2,0.2,0.3c0.1,0.1,0.2,0.2,0.3,0.2l0.2,0.1c0.2,0,0.4,0,0.5-0.1l0.2-0.1v0.2c0,0.1,0.1,0.3,0.3,0.4l0.2,0.1
					c0.1,0,0.3,0.1,0.4,0.1c0.2,0,0.5-0.1,0.7-0.2c0.1-0.1,0.2-0.1,0.3-0.2c0.1-0.1,0.1-0.2,0.2-0.3c0.1-0.2,0.1-0.4,0.1-0.6v-0.5
					l0.1,0.2l0.2,0.3c0.1,0.1,0.2,0.2,0.3,0.3c0.1,0.1,0.2,0.2,0.4,0.2l0,0c0.2,0.1,0.5,0.1,0.7,0c0.1,0,0.3-0.1,0.4-0.2
					c0.2-0.1,0.3-0.3,0.4-0.5c0-0.1,0-0.3,0-0.4L88.4,38h0.2c0.2-0.1,0.3-0.1,0.5-0.3c0.2-0.1,0.3-0.3,0.3-0.5c0-0.1,0-0.2,0-0.3
					c0-0.1-0.1-0.2-0.1-0.2c-0.1-0.1-0.2-0.1-0.3-0.2H89l-0.3-0.1c-0.2,0-0.5,0-0.7,0h-0.4h-0.2l0.2-0.1c0.1-0.1,0.3-0.2,0.4-0.3
					c0.2-0.1,0.3-0.2,0.4-0.3c0.1-0.1,0.3-0.2,0.4-0.4c0-0.1,0.1-0.2,0.1-0.3c0-0.1,0-0.2,0-0.3c0-0.1-0.1-0.2-0.2-0.3
					C88.6,34.4,88.5,34.3,88.4,34.3"/>
			</g>
		</g>
	</g>
</g>
<g>
	<g>
		<defs>
			<polygon id="SVGID_3_" points="77.7,39.5 83.8,30.6 92.9,33.9 86.8,42.8 			"/>
		</defs>
		<clipPath id="SVGID_4_">
			<use xlink:href="#SVGID_3_"  style="overflow:visible;"/>
		</clipPath>
		<g class="st17">
			<path class="st8" d="M82.5,40.8c-0.1,0-0.2-0.1-0.2-0.2l-2.4-3.2c-0.1-0.1-0.1-0.3,0-0.5l2.5-3.7c0.1-0.2,0.3-0.3,0.5-0.3l5-0.5
				c0.1,0,0.2,0,0.3,0c0.1,0,0.1,0.1,0.2,0.2l2.4,3.2c0.1,0.1,0.1,0.3,0,0.5L88.3,40c-0.1,0.2-0.3,0.3-0.5,0.3l-5,0.5
				C82.7,40.8,82.6,40.8,82.5,40.8 M88.4,32.2c-0.2,0-0.3,0-0.5,0l-5,0.5c-0.3,0-0.7,0.2-0.9,0.5l-2.5,3.7c-0.2,0.2-0.2,0.6,0,0.8
				l2.4,3.2c0.1,0.1,0.2,0.2,0.3,0.3c0.2,0.1,0.3,0.1,0.5,0l5-0.5c0.3,0,0.6-0.2,0.8-0.5l2.5-3.7c0.2-0.2,0.2-0.6,0-0.8l-2.4-3.2
				C88.6,32.4,88.5,32.3,88.4,32.2"/>
			<path class="st8" d="M88,34.1c-0.1,0-0.2-0.1-0.2-0.1c-0.2,0-0.4,0-0.5,0.1L87,34.2l0-0.2c0-0.1-0.1-0.3-0.3-0.4
				c-0.1,0-0.1-0.1-0.2-0.1c-0.1,0-0.3-0.1-0.4-0.1c-0.1,0-0.3,0-0.4,0.1l-0.3,0.1c-0.1,0.1-0.2,0.1-0.3,0.2
				C85.1,34,85,34.1,85,34.2c-0.1,0.2-0.1,0.4-0.1,0.6c0,0.1,0,0.2,0,0.3v0.2l-0.1-0.2l-0.2-0.3c-0.1-0.1-0.2-0.2-0.3-0.3
				c-0.1-0.1-0.2-0.2-0.4-0.2h-0.1c-0.1,0-0.2,0-0.4,0c-0.1,0-0.2,0-0.3,0.1c-0.1,0-0.3,0.1-0.4,0.2c-0.2,0.1-0.3,0.3-0.4,0.5
				c0,0.1,0,0.3,0,0.4l0.1,0.2h-0.2c-0.2,0.1-0.3,0.1-0.5,0.3c-0.2,0.1-0.3,0.3-0.3,0.5c0,0.1,0,0.2,0,0.3c0,0.1,0.1,0.2,0.1,0.2
				c0.1,0.1,0.2,0.1,0.3,0.2h0.1c0.1,0,0.2,0.1,0.3,0.1c0.2,0,0.5,0,0.7,0H83h0.2h0.1h0.2l-0.2,0.1L83,37.6
				c-0.2,0.1-0.3,0.2-0.4,0.3c-0.1,0.1-0.3,0.2-0.4,0.4c-0.1,0.1-0.1,0.2-0.1,0.3c0,0.1,0,0.2,0,0.3c0,0.1,0.1,0.2,0.2,0.3
				c0.2,0.1,0.4,0.2,0.6,0.3c0.2,0,0.4,0,0.5-0.1l0.2-0.1v0.2c0.1,0.1,0.1,0.3,0.3,0.3l0.2,0.1c0.1,0,0.3,0.1,0.4,0.1
				c0.2,0,0.5-0.1,0.7-0.2c0.1-0.1,0.2-0.1,0.3-0.2c0.1-0.1,0.1-0.2,0.2-0.3c0.1-0.2,0.1-0.4,0.1-0.6v-0.5l0.1,0.2
				c0.1,0.1,0.1,0.2,0.2,0.3c0.1,0.1,0.2,0.2,0.3,0.3c0.1,0.1,0.3,0.2,0.4,0.2c0.1,0,0.2,0,0.4,0c0.1,0,0.2,0,0.3-0.1
				c0.1,0,0.3-0.1,0.4-0.2c0.2-0.1,0.3-0.3,0.4-0.5c0-0.1,0-0.3,0-0.4l-0.1-0.2l0.2,0c0.2,0,0.3-0.1,0.5-0.3
				c0.2-0.1,0.3-0.3,0.3-0.5c0-0.1,0-0.2,0-0.3c0-0.1-0.1-0.2-0.1-0.2c-0.1-0.1-0.2-0.1-0.3-0.2h-0.1c-0.1,0-0.2-0.1-0.3-0.1
				c-0.2,0-0.5,0-0.7,0h-0.4h-0.2l0.2-0.1c0.1-0.1,0.2-0.1,0.3-0.2c0.1-0.1,0.3-0.2,0.4-0.3c0.1-0.1,0.3-0.2,0.4-0.4
				c0.1-0.1,0.1-0.2,0.1-0.3c0-0.1,0-0.2,0-0.3c0-0.1-0.1-0.2-0.2-0.3C88.3,34.2,88.2,34.1,88,34.1"/>
		</g>
	</g>
</g>
<g>
	<g>
		<defs>
			
				<rect id="SVGID_5_" x="24.1" y="23.1" transform="matrix(3.996804e-02 -0.9992 0.9992 3.996804e-02 0.3874 64.0132)" width="18.8" height="17.4"/>
		</defs>
		<clipPath id="SVGID_6_">
			<use xlink:href="#SVGID_5_"  style="overflow:visible;"/>
		</clipPath>
		<g class="st18">
			<g>
				<defs>
					<polyline id="SVGID_7_" points="27.1,22.1 42.3,24.5 39.7,41.4 24.5,39 27.1,22.1 					"/>
				</defs>
				<clipPath id="SVGID_8_">
					<use xlink:href="#SVGID_7_"  style="overflow:visible;"/>
				</clipPath>
				<g class="st19">
					<g>
						<defs>
							<polyline id="SVGID_9_" points="27,22.5 41.9,24.4 39.8,41 24.9,39.1 27,22.5 							"/>
						</defs>
						<clipPath id="SVGID_10_">
							<use xlink:href="#SVGID_9_"  style="overflow:visible;"/>
						</clipPath>
						<g class="st20">
							<g>
								<defs>
									<polyline id="SVGID_11_" points="31,23.1 40.5,30.9 35.3,40.4 25.8,32.5 31,23.1 									"/>
								</defs>
								<clipPath id="SVGID_12_">
									<use xlink:href="#SVGID_11_"  style="overflow:visible;"/>
								</clipPath>
								<g class="st21">
									<path class="st12" d="M33.6,25.6c-0.1,0-0.2,0-0.2,0.1l0,0h0.1l4,3.2c0.2,0.1,0.3,0.4,0.3,0.6v5.5V35c0,0.1,0,0.2-0.1,0.2
										l-0.2,0.2l-4,2.3l0.2,0.1h0.2h0.1l4-2.3H38c0-0.1,0-0.2,0.1-0.3v-0.2v-5.5c0-0.2-0.1-0.5-0.2-0.6l-4-3.2L33.6,25.6
										L33.6,25.6 M33,25.2c-0.1,0-0.3,0-0.4,0.1l-4,2.3c-0.1,0.1-0.2,0.2-0.3,0.3L28.2,28c0,0.1-0.1,0.2-0.1,0.4v0.1V34
										c0,0.4,0.2,0.8,0.5,1l4,3.2c0.2,0.1,0.3,0.2,0.5,0.2c0.1,0,0.2,0,0.3,0c-0.1,0-0.2-0.1-0.3-0.2l-3.9-3.1L29,35
										c-0.1-0.1-0.1-0.2-0.2-0.3l0,0c-0.2-0.1-0.3-0.4-0.3-0.6v-5.7l0.1-0.2l0.1-0.1l0,0l0,0l0,0l0.1-0.1
										c0.1-0.1,0.2-0.2,0.3-0.3l4-2.3l0.1,0C33.1,25.2,33.1,25.2,33,25.2"/>
									<path class="st12" d="M33.7,35.5l-0.1,0.2l-0.2,0.1c0.1,0.1,0.2,0.2,0.3,0.3c0.2,0.1,0.4,0.1,0.6,0h-0.1
										c-0.2-0.1-0.3-0.2-0.4-0.3L33.7,35.5 M34.9,33.3l0.1,0.2c0.1,0.1,0.1,0.3,0.2,0.4l0,0l0.2,0.1c0.2,0.1,0.3,0.1,0.5,0.2l0,0
										c0.1,0,0.2,0,0.2,0c-0.1,0-0.2-0.1-0.3-0.1c-0.2-0.1-0.3-0.2-0.5-0.3c-0.1-0.1-0.2-0.2-0.3-0.3L34.9,33.3 M32.5,33
										l-0.2,0.1c-0.1,0.1-0.2,0.1-0.3,0.2l-0.3,0.1l-0.1,0.1c-0.1,0.2-0.1,0.3-0.2,0.5l0,0.2v0.1c0,0.1,0,0.2,0,0.3
										c0,0.1,0,0.3,0.1,0.4c0,0.1,0.1,0.2,0.2,0.3c0.1,0.1,0.2,0.2,0.3,0.3c0.1,0.1,0.3,0.2,0.5,0.2c0.1,0,0.1,0,0.2,0h0.1
										l-0.3-0.1c-0.2-0.2-0.4-0.4-0.5-0.6c0-0.1-0.1-0.3-0.1-0.4v-0.2c0,0,0-0.1,0-0.1c0-0.1,0-0.2,0.1-0.3
										c0-0.2,0.1-0.3,0.2-0.5l0.2-0.3L32.5,33 M35.7,29.9h-0.3c-0.1,0-0.3,0.1-0.4,0.1L35,30.2l-0.1,0.2l0.2-0.1l0.1-0.1l0.2-0.1
										h0.1c0.2-0.1,0.3-0.2,0.5-0.2L35.7,29.9 M30.5,29.4c-0.1,0-0.2,0-0.3,0.1l-0.2,0.2l-0.2,0.2L29.7,30c0,0.1-0.1,0.2-0.1,0.3
										c0,0.2,0,0.3,0,0.5c0.1,0.2,0.2,0.4,0.3,0.5l0.1,0.2l-0.1,0.1l-0.2,0.2c0,0.1-0.1,0.2-0.1,0.3v0.2c0,0.2,0,0.4,0.1,0.6
										c0.1,0.1,0.1,0.3,0.2,0.4c0.1,0.1,0.2,0.2,0.3,0.2c0.1,0.1,0.2,0.1,0.3,0.2h0.1h0.2h0.1c-0.1,0-0.2-0.1-0.3-0.1
										c-0.1-0.1-0.2-0.1-0.2-0.2c-0.1-0.1-0.2-0.3-0.2-0.4c-0.1-0.2-0.1-0.4-0.1-0.6c0,0,0-0.1,0-0.1V32c0-0.1,0.1-0.2,0.1-0.2
										l0.1-0.2l0.2-0.2l-0.2-0.2c-0.1-0.2-0.2-0.3-0.3-0.5c0-0.1,0-0.2,0-0.4c0,0,0-0.1,0-0.1c0-0.1,0-0.2,0.1-0.3l0.1-0.1
										l0.2-0.2l0.2-0.2h0.1L30.5,29.4 M33.9,27.7h-0.2c-0.1,0-0.2,0.1-0.3,0.1l0.1,0.1l0.1,0.2l0.1-0.2c0.1-0.1,0.2-0.2,0.3-0.2
										C34,27.7,34,27.7,33.9,27.7 M32.3,27.5c-0.1,0-0.3,0-0.4,0.1c-0.2,0.1-0.4,0.3-0.5,0.5l0,0c0,0.1-0.1,0.2-0.1,0.3v0.1
										c0,0.1,0,0.3,0,0.4c0.1,0.3,0.1,0.5,0.3,0.8c0.1,0.1,0.2,0.1,0.3,0.2c0.1,0.1,0.2,0.2,0.3,0.3l0.2,0.2L32.3,30l-0.2-0.4
										c-0.1-0.2-0.2-0.5-0.3-0.8c0-0.1,0-0.3,0-0.4v-0.1c0-0.1,0.1-0.2,0.1-0.3V28c0.1-0.2,0.3-0.3,0.4-0.4h0.1
										C32.4,27.5,32.4,27.5,32.3,27.5"/>
								</g>
							</g>
							<g>
								<defs>
									<polyline id="SVGID_13_" points="31.5,23.1 41,30.9 35.8,40.4 26.3,32.5 31.5,23.1 									"/>
								</defs>
								<clipPath id="SVGID_14_">
									<use xlink:href="#SVGID_13_"  style="overflow:visible;"/>
								</clipPath>
								<g class="st22">
									<path class="st8" d="M33.6,25.6L33.6,25.6l0.3,0.1l4,3.2l0,0c0.2,0.1,0.3,0.4,0.3,0.6v5.6l-0.1,0.2L38,35.5h-0.1l-4,2.3
										h-0.1h-0.2l-0.2-0.1h-0.1l-4-3.2c-0.2-0.1-0.3-0.4-0.3-0.6v-5.5v-0.1l0.1-0.2l0.2-0.2l4-2.3l0,0
										C33.5,25.5,33.5,25.5,33.6,25.6L33.6,25.6 M33.6,25.1c-0.1,0-0.2,0-0.3,0l-0.1,0l-4,2.3c-0.1,0.1-0.2,0.2-0.3,0.3l0,0
										L28.8,28l0,0c0,0.1,0,0.2-0.1,0.3v0.2v5.5c0,0.2,0.1,0.5,0.2,0.7c0.1,0.1,0.1,0.2,0.2,0.3l0.3,0.2l3.9,3.1
										c0.1,0.1,0.2,0.1,0.3,0.2c0.1,0,0.1,0,0.2,0c0.1,0,0.3,0,0.4-0.1l4-2.3c0.1-0.1,0.2-0.1,0.3-0.3v-0.1
										c0-0.1,0.1-0.2,0.1-0.3v-0.1V35v-5.5c0-0.3-0.1-0.6-0.3-0.9l-0.4-0.3l-3.8-3c-0.2-0.1-0.3-0.2-0.5-0.2"/>
									<path class="st8" d="M33.5,37.8l0.2,0.1l0,0L33.5,37.8 M38,35.5L38,35.5l-4.1,2.3h-0.1h0.1L38,35.5L38,35.5 M28.8,28
										L28.8,28L28.8,28L28.8,28 M33.6,25.6L33.6,25.6 M33.3,25.2l-0.1,0l-4,2.3c-0.1,0.1-0.2,0.2-0.3,0.3
										c0.1-0.1,0.2-0.2,0.3-0.3l4-2.3L33.3,25.2"/>
									<path class="st8" d="M32.8,27.4c-0.1,0-0.2,0-0.3,0h-0.1c-0.2,0.1-0.3,0.2-0.5,0.4v0.1c0,0.1-0.1,0.2-0.1,0.3v0.1
										c0,0.1,0,0.3,0,0.4c0.1,0.3,0.1,0.5,0.2,0.8l0.2,0.4l0.1,0.2l-0.2-0.2c-0.1-0.1-0.2-0.2-0.3-0.3c-0.1-0.1-0.2-0.2-0.3-0.2
										l-0.1-0.1c-0.2-0.1-0.3-0.1-0.5-0.1c-0.1,0-0.2,0-0.3,0h-0.1l-0.2,0.2l-0.2,0.2l-0.1,0.1c0,0.1-0.1,0.2-0.1,0.3
										c0,0,0,0.1,0,0.1c0,0.1,0,0.2,0,0.4c0,0.2,0.1,0.4,0.3,0.5l0.2,0.2l-0.2,0.2l-0.1,0.2c0,0.1-0.1,0.2-0.1,0.3V32
										c0,0,0,0.1,0,0.1c0,0.2,0,0.4,0.1,0.6c0,0.1,0.1,0.3,0.2,0.4c0.1,0.1,0.1,0.2,0.2,0.2c0.1,0.1,0.2,0.1,0.3,0.1H31h0.1
										c0.1,0,0.1,0,0.2,0c0.1,0,0.2-0.1,0.4-0.1l0.3-0.1c0.1,0,0.2-0.1,0.3-0.2l0.2-0.1l-0.1,0.2l-0.2,0.3
										C32.1,33.6,32,33.8,32,34c0,0.1,0,0.2-0.1,0.3c0,0,0,0.1,0,0.1v0.2c0,0.1,0,0.3,0.1,0.4c0.1,0.2,0.3,0.4,0.5,0.6l0.3,0.1
										H33h0.2c0.1,0,0.2-0.1,0.3-0.1l0.2-0.1l0.1-0.2l0.1,0.2c0.1,0.2,0.3,0.3,0.4,0.3h0.1h0.2c0.1,0,0.2,0,0.3-0.1
										c0.1,0,0.2-0.1,0.3-0.2l0.2-0.2v-0.1c0-0.1,0.1-0.2,0.1-0.3v-0.1c0-0.1,0-0.3,0-0.4c-0.1-0.3-0.1-0.5-0.3-0.7l0,0
										c-0.1-0.1-0.1-0.3-0.2-0.4l-0.1-0.2l0.2,0.2c0.1,0.1,0.2,0.2,0.3,0.3c0.1,0.1,0.3,0.2,0.5,0.3c0.1,0.1,0.2,0.1,0.3,0.1h0.2
										c0.1,0,0.2,0,0.3-0.1l0.2-0.2l0.2-0.2l0.1-0.1l0.1-0.2V33c0-0.2,0-0.3,0-0.5c0-0.2-0.1-0.4-0.3-0.5l-0.2-0.2l0.2-0.1
										l0.2-0.2c0-0.1,0.1-0.2,0.1-0.3V31c0-0.2,0-0.4-0.1-0.7c-0.1-0.1-0.1-0.3-0.2-0.4c-0.1-0.1-0.2-0.2-0.3-0.2
										c-0.1-0.1-0.2-0.1-0.3-0.1h-0.2c-0.1,0-0.1,0-0.2,0h-0.1c-0.2,0-0.4,0.1-0.5,0.2h-0.1l-0.2,0.1L35.1,30l-0.2,0.1l0.1-0.2
										l0.1,0.1l0.1-0.1c0.1-0.2,0.1-0.3,0.2-0.5c0-0.1,0-0.2,0.1-0.3c0-0.1,0-0.2,0-0.3c0-0.1,0-0.3-0.1-0.4
										c0-0.1-0.1-0.2-0.2-0.3c-0.1-0.1-0.2-0.2-0.3-0.3c-0.1-0.1-0.3-0.2-0.5-0.2c-0.1,0-0.1,0-0.2,0h-0.1
										c-0.1,0-0.2,0.1-0.3,0.2L33.6,28l-0.1-0.2l-0.1-0.1c-0.1-0.1-0.2-0.2-0.3-0.3C33,27.4,32.9,27.3,32.8,27.4"/>
								</g>
							</g>
						</g>
					</g>
				</g>
			</g>
		</g>
	</g>
</g>
<g>
	<g>
		<defs>
			<polygon id="SVGID_15_" points="26.2,71.6 15.8,65.6 20.8,58.3 31.2,64.3 			"/>
		</defs>
		<clipPath id="SVGID_16_">
			<use xlink:href="#SVGID_15_"  style="overflow:visible;"/>
		</clipPath>
		<g class="st23">
			<g>
				<defs>
					<polyline id="SVGID_17_" points="24.8,70.9 16.2,65.1 22.2,59.1 30.9,64.8 24.8,70.9 					"/>
				</defs>
				<clipPath id="SVGID_18_">
					<use xlink:href="#SVGID_17_"  style="overflow:visible;"/>
				</clipPath>
				<g class="st24">
					<g>
						<defs>
							<polyline id="SVGID_19_" points="24.5,70.7 16.4,64.9 22.5,59.3 30.6,65 24.5,70.7 							"/>
						</defs>
						<clipPath id="SVGID_20_">
							<use xlink:href="#SVGID_19_"  style="overflow:visible;"/>
						</clipPath>
						<g class="st25">
							<g>
								<defs>
									<polyline id="SVGID_21_" points="17.1,64.3 23.2,59.8 29.9,65.7 23.8,70.1 17.1,64.3 									"/>
								</defs>
								<clipPath id="SVGID_22_">
									<use xlink:href="#SVGID_21_"  style="overflow:visible;"/>
								</clipPath>
								<g class="st26">
									<g>
										<defs>
											<polyline id="SVGID_23_" points="17.3,64.4 23,60 29.8,65.6 24,70 17.3,64.4 											"/>
										</defs>
										<clipPath id="SVGID_24_">
											<use xlink:href="#SVGID_23_"  style="overflow:visible;"/>
										</clipPath>
										<g class="st27">
											<g>
												<defs>
													<polyline id="SVGID_25_" points="18.8,63.3 25.6,62.4 28.1,66.8 21.2,67.7 18.8,63.3 													"/>
												</defs>
												<clipPath id="SVGID_26_">
													<use xlink:href="#SVGID_25_"  style="overflow:visible;"/>
												</clipPath>
												<g class="st28">
													<path class="st12" d="M21.1,63.3l-0.1,0.1l0,0h0.1l2.7-0.6c0.1,0,0.2,0,0.4,0.1l2.2,1.4l0.1,0.1v0.1l-0.5,2l0,0
														l0.1-0.1l0.5-2v-0.1v0.1l-0.5,2l-0.1,0.1l0,0l0,0l0.1-0.1l0.5-2v-0.1l0,0l0,0l-2.2-1.4c-0.1-0.1-0.3-0.1-0.4-0.1
														l-2.7,0.6l-0.1,0.1 M20.8,63.6C20.8,63.6,20.8,63.6,20.8,63.6l-0.5,2.1c0,0.1,0,0.1,0,0.2v0.1l0.1,0.1h0.1l2.2,1.4
														c0.1,0.1,0.3,0.1,0.4,0.1h0.2l2.6-0.6c0.1,0,0.2-0.1,0.3-0.1c0,0,0,0,0.1-0.1v-0.1c-0.1,0-0.2,0.1-0.2,0.1l-2.7,0.6H23
														c-0.1,0-0.2,0-0.3,0l-2.2-1.4l-0.1-0.1v-0.1l0,0l0,0l0,0c0-0.1,0-0.1,0-0.2l0.5-2l0,0h0l0,0v0.1"/>
													<path class="st12" d="M25,65.8L25,65.8V66c0.1,0,0.2,0,0.3-0.1l0.1-0.1l0.1-0.1l0,0h-0.1c-0.1,0-0.2,0.1-0.3,0.1
														L25,65.8 M24.6,64.8h0.1H25h0h0c0.1,0,0.2-0.1,0.3-0.2l0.1-0.1c-0.1,0-0.1,0.1-0.2,0.1L25,64.7h-0.2h-0.1 M23.6,65.4
														v0.1v0.2v0.1l0,0.1l0,0l0.1,0.2l0.1,0.1l0.1,0.1l0.2,0.1h0.2h0.2c0.1,0,0.2-0.1,0.3-0.1h0.1v-0.1l-0.2,0.1h-0.2h-0.2
														l-0.2-0.1L24,66l-0.1-0.1L23.8,66l0,0l-0.1-0.2v-0.1 M23.6,63.9c0,0,0,0.1-0.1,0.1v0.1v0.1v-0.1L23.6,63.9L23.6,63.9
														L23.6,63.9l0-0.2L23.6,63.9L23.6,63.9 M21.5,65.4l-0.1,0.2v0.1v0.2l0,0l0.1,0.1l0.2,0.1c0.1,0,0.2,0,0.3,0h0.1v0.1
														l0,0.2l0,0.1l0,0c0.1,0.1,0.2,0.1,0.3,0.2h0.2h0.2l0.2-0.1l0.1-0.1l0-0.1l0,0l0,0l-0.2,0.1h-0.2h-0.2l-0.2-0.1h-0.1
														l0,0l-0.1-0.1L22.3,66v-0.1h-0.1c-0.1,0-0.2,0-0.3,0l-0.1-0.1l0,0l-0.1-0.1l0,0v-0.1v-0.1l0,0L21.5,65.4 M22,63.9V64
														l0,0h0.1v-0.1v-0.2L22,63.9 M21.5,64.3l-0.1,0.1c0,0.1,0,0.2,0,0.3l0.1,0.1l0,0l0.2,0.1c0.1,0,0.2,0,0.4,0.1l0.2-0.1
														h0.2h0.1h-0.1h-0.2c-0.1,0-0.3-0.1-0.4-0.1l-0.2-0.1l0,0l-0.1-0.1C21.5,64.5,21.5,64.4,21.5,64.3L21.5,64.3"/>
												</g>
											</g>
											<g>
												<defs>
													<polyline id="SVGID_27_" points="18.9,63.1 25.8,62.2 28.2,66.7 21.4,67.5 18.9,63.1 													"/>
												</defs>
												<clipPath id="SVGID_28_">
													<use xlink:href="#SVGID_27_"  style="overflow:visible;"/>
												</clipPath>
												<g class="st29">
													<path class="st8" d="M26,66.5h-0.1l-2.7,0.6c-0.1,0-0.2,0-0.3,0l-2.2-1.4l-0.1-0.1v-0.1l0.5-2l0,0l0.1-0.1l0.1-0.1
														l2.7-0.6l0,0c0.1,0,0.2,0,0.3,0l2.2,1.4l0.1,0.1v0.1v0.1l-0.5,2L26,66.5L26,66.5L26,66.5l0.1-0.2l0.5-2v-0.1v0.1
														l-0.5,2L26,66.5L26,66.5 M21,63.1l-0.1,0.1l0,0l-0.5,2c0,0.1,0,0.1,0,0.2l0,0l0,0l0,0l0,0h0.1l0,0l2.2,1.4
														c0.1,0.1,0.2,0.1,0.4,0.1h0.2l2.8-0.3c0.1,0,0.2-0.1,0.2-0.1h0l0,0l0.1-0.1l0.5-2c0-0.1,0-0.1,0-0.2v-0.1l0,0L26.7,64
														l0,0l-2.2-1.4c-0.1-0.1-0.3-0.1-0.5-0.1H24h-0.1L21.2,63C21.1,63,21,63.1,21,63.1"/>
													<polyline class="st8" points="23.2,67.3 23.2,67.3 23.2,67.3 26,66.7 23.3,67.3 23.2,67.3 													"/>
													<polyline class="st8" points="20.3,65.6 20.3,65.6 20.3,65.6 20.3,65.6 													"/>
													<path class="st8" d="M21.5,64.1l-0.1,0.1l0,0c0,0.1,0,0.2,0,0.3l0.1,0.1l0,0l0.2,0.1c0.1,0.1,0.3,0.1,0.4,0.1h0.2h0.1
														h-0.1h-0.2L22,65h-0.1c-0.1,0-0.2,0.1-0.2,0.1l0,0l0,0l-0.1,0.1l0,0v0.1v0.1l0,0l0.1,0.1l0,0l0.1,0.1
														c0.1,0,0.2,0,0.3,0h0.1V66l0,0.2l0.1,0.1l0,0h0.1l0.2,0.1H23h0.2l0.2-0.1l0,0l0,0l0.1-0.1l0.1-0.1c0,0,0-0.1,0-0.1
														v-0.1v-0.2v-0.1v0.1l0.1,0.2l0,0l0.1,0.2l0.1,0.1l0.1,0.1l0.2,0.1h0.2h0.2l0.2-0.1l0.1-0.1V66v-0.1v-0.1H25
														c0.1,0,0.2,0,0.3-0.1h0.1l0,0l0,0l0.1-0.1v-0.2l0-0.1l-0.1-0.1l0,0l0.1-0.2l-0.3-0.1H25h-0.2h-0.1h0.1H25l0.3-0.1
														c0.1,0,0.1-0.1,0.2-0.1h0.1l0.1-0.1v-0.3l-0.1-0.2L25.5,64l-0.2-0.1c-0.1,0-0.2,0-0.3,0h-0.1v-0.1l0-0.2v-0.1h0
														c-0.1-0.1-0.2-0.1-0.3-0.2h-0.2h-0.2l-0.2,0.1l-0.1,0.1l0,0.1l-0.1,0.2l0,0V64v0v0.1V64v-0.1v-0.1v-0.1l-0.1-0.2
														l-0.1-0.1l-0.1-0.1l-0.2-0.1h-0.2h-0.2c-0.1,0-0.2,0.1-0.2,0.1l-0.1,0.1v0.1v0.2v0.1h-0.1l0,0L22,64L21.8,64"/>
												</g>
											</g>
										</g>
									</g>
								</g>
							</g>
						</g>
					</g>
				</g>
			</g>
		</g>
	</g>
</g>
<path class="st2" d="M55.2,84.5l1.5,0.6l0,0l2.6-0.2l0.7-0.1H60c0,0.1,0.1,0.2,0.2,0.2c0,0,0,0,0,0c0.1,0,0.2-0.1,0.2-0.2
	c0,0,0,0,0,0c0-0.1-0.1-0.2-0.2-0.2c-0.1,0-0.2,0.1-0.2,0.2h0h-0.7L56.7,85l-1.5-0.7l0,0l-10.9,1l-3.8,0.4l-0.7-0.4v0.1l0.7,0.3l0,0
	l3.8-0.4L55.2,84.5z"/>
<path class="st2" d="M56.6,83.5l-1.4-0.4l0,0l-0.9,0.1c0-0.6-0.1-1.2-0.1-1.7v-0.1H54l-4.2,0.5l-1.2,0.1h-0.1c0-0.1-0.1-0.2-0.2-0.1
	c-0.1,0-0.1,0.1-0.1,0.2c0,0.1,0,0.2,0.1,0.2s0.2,0,0.2-0.1c0,0,0-0.1,0-0.1h0.1l1.2-0.1l4.1-0.4c0,0.5,0.1,1.1,0.1,1.7v0.1h0.1
	l1-0.1l1.4,0.4l0,0l1.8-0.2l8-0.8l1.5,0.8l0,0l1.5-0.2h0.4l0,0c0.1,0.2,0.3,0.3,0.5,0.2c0,0,0,0,0,0c0.1,0,0.2-0.1,0.2-0.3
	c0-0.1,0-0.3-0.1-0.3c-0.1-0.1-0.1-0.1-0.2-0.1h-0.1c0.1,0,0.2,0.1,0.2,0.1c0.1,0.1,0.1,0.2,0.1,0.2c0,0.1-0.2,0.2-0.3,0.2
	c0,0,0,0,0,0c-0.1,0-0.1-0.1-0.2-0.1c0-0.1,0-0.2,0-0.3c0.1-0.1,0.2-0.2,0.2-0.2s0,0-0.1,0c-0.1,0-0.2,0.1-0.2,0.1
	c-0.1,0.1-0.1,0.2,0,0.3l0,0h-0.4l-1.5,0.1l-1.5-0.8l0,0l-8,0.8L56.6,83.5z"/>
<path class="st2" d="M48.2,97.9c-0.1-0.1-0.1-0.1-0.2-0.1c0,0-0.1,0-0.1,0C47.9,97.9,48,97.9,48.2,97.9c0,0.1,0,0.2,0,0.3
	c0,0.1-0.2,0.2-0.3,0.2c-0.1,0-0.2-0.2-0.2-0.3c0,0,0,0,0-0.1c0.1-0.1,0.2-0.2,0.2-0.2s0,0-0.1,0c-0.1,0-0.1,0.1-0.2,0.1
	c-0.1,0.1-0.1,0.2,0,0.4c0.1,0.2,0.3,0.3,0.5,0.2c0.1,0,0.2-0.1,0.2-0.2l0,0h0.3l1.1-0.1l3.8-0.3l0,0l0,0l1.1-2.3l0,0l0,0
	c0-0.3-0.1-0.7-0.1-1.1c-0.2-1.6-0.3-3-0.4-4.3l0,0l0,0l-1.8-1.2l0,0l-1.8,0.2h-0.5h-0.1c0-0.1-0.1-0.2-0.1-0.2
	c-0.1-0.1-0.1-0.1-0.2-0.1c0,0-0.1,0-0.1,0c0.1,0,0.2,0.1,0.2,0.1c0,0.1,0,0.2,0,0.2c0,0.1-0.2,0.2-0.3,0.2c0,0,0,0,0,0
	c-0.1,0-0.1-0.1-0.2-0.1c0-0.1,0-0.2,0-0.3c0.1-0.1,0.2-0.2,0.2-0.2s0,0-0.1,0c-0.1,0-0.1,0.1-0.2,0.1c-0.1,0.1-0.1,0.2,0,0.4
	c0.1,0.2,0.3,0.3,0.5,0.2c0.1,0,0.2-0.1,0.2-0.2v-0.1h0.1h0.5l1.8-0.3c0.5,0.3,1.1,0.7,1.8,1.2c0.1,1.2,0.3,2.7,0.4,4.2
	c0,0.3,0.1,0.7,0.1,1l-1,2.2L49.7,98l-1.1,0.1h-0.3h-0.1C48.3,98.1,48.2,98,48.2,97.9z"/>
<path class="st2" d="M64.6,93.9h0.4H65l0,0c0,0.1,0.1,0.2,0.2,0.2c0,0,0,0,0,0l0,0c0.1,0,0.2-0.1,0.2-0.2c0-0.1-0.1-0.2-0.2-0.2
	c0,0,0,0,0,0c-0.1,0-0.2,0.1-0.2,0.2h-0.1L64.6,93.9L63.1,94l-4.8,0.3c-0.1-0.5-0.1-1.1-0.2-1.7l-0.1-0.4l1.7-1.9l0,0l0,0
	c-0.1-0.6-0.1-1.2-0.2-1.7l0,0l0,0l-0.6-0.5l0,0l0,0l-2.2,0.2l-0.6,0.1h-0.1c0-0.1,0-0.2-0.1-0.2c-0.1-0.1-0.1-0.1-0.2-0.1
	c-0.1,0-0.1,0-0.1,0c0.1,0,0.2,0.1,0.2,0.1c0,0.1,0.1,0.1,0.1,0.2l0,0c0,0,0,0,0,0.1c0,0.1-0.2,0.2-0.3,0.2c-0.1,0-0.1-0.1-0.2-0.1
	c0-0.1,0-0.2,0-0.3c0.1-0.1,0.2-0.2,0.2-0.2s0,0-0.1,0c-0.1,0-0.1,0.1-0.2,0.1c-0.1,0.1-0.1,0.2,0,0.3c0.1,0.2,0.3,0.3,0.5,0.2
	c0,0,0,0,0,0c0.1,0,0.2-0.1,0.2-0.3c0,0,0-0.1,0-0.1h0.1h0.6l2.1-0.3l0.5,0.4c0,0.5,0.1,1.1,0.2,1.7L58,92.2l0,0l0,0
	c0,0.2,0,0.3,0.1,0.5l0.2,1.7v0.1h0.1l4.8-0.4L64.6,93.9z"/>
<path class="st2" d="M61.7,93.3c-0.1-1.2-0.2-2.6-0.3-3.9c0-0.2,0-0.4,0-0.6l0,0l0,0l-1.8-1.6l0,0l0,0l-11.4,1l0,0L41.2,93v0.1
	l6.9-4.6l11.3-1.1l1.8,1.5c0,0.2,0,0.3,0,0.5c0.1,1.3,0.2,2.7,0.3,3.9v0.1h0.1l15.2-1.3V92L61.7,93.3z"/>
<path class="st2" d="M61.4,86.3c0,0.4,0.1,0.9,0.2,1.6l0,0l0,0l3.2,2.5l0,0l4.3-0.4l7.4-0.7l1-0.1v-0.1l-1,0.1l-7.4,0.7l-4.3,0.4
	l-3.2-2.4C61.6,87.2,61.5,86.7,61.4,86.3c0-0.2,0-0.3,0-0.4v-0.1c0,0,0,0.1,0,0.1C61.4,86,61.4,86.2,61.4,86.3z"/>
<path class="st2" d="M57.4,103.7L57.4,103.7L57.4,103.7c-0.2-2-0.4-4-0.6-5.7l0,0l0,0l-1.7-1.4c-0.2-1.4-0.3-2.6-0.4-3.4
	c0-0.4-0.1-0.7-0.1-1s0-0.2,0-0.2l0,0c0.1,0,0.2-0.1,0.2-0.2c0,0,0,0,0,0c0-0.1-0.1-0.2-0.2-0.2c-0.1,0-0.2,0.1-0.2,0.2c0,0,0,0,0,0
	l0,0c0,0.1,0.1,0.2,0.2,0.2c0,0.1,0,0.2,0,0.3c0,0.2,0,0.6,0.1,1c0.1,0.8,0.2,2,0.3,3.5l0,0l1.7,1.3c0.2,1.7,0.3,3.6,0.5,5.6
	l-0.2,0.2l-0.7,0.9h0.2c0.2-0.3,0.4-0.5,0.7-0.8L57.4,103.7z"/>
<path class="st2" d="M62.9,87.6L62.9,87.6L62.9,87.6l0.7,0.5l1.9,1.3l0,0l4.9-0.4l1.4-0.2h0.3c0,0.1,0.1,0.2,0.2,0.1
	c0.1,0,0.1-0.1,0.1-0.1c0-0.1-0.1-0.2-0.2-0.2l0,0c-0.1,0-0.2,0.1-0.2,0.2h-0.3L70.4,89l-4.8,0.4L63.7,88L62.9,87.6
	c-0.1-1.5-0.2-2.9-0.3-4l0,0h0l-3.1,0.3l-0.9,0.1h-0.1c0,0,0-0.1,0-0.1c-0.1-0.1-0.1-0.1-0.2-0.1c0,0-0.1,0-0.1,0
	c0.1,0,0.2,0.1,0.2,0.1l0,0h-0.1h0.1c0,0.1,0,0.1,0,0.2c0,0.1-0.2,0.2-0.3,0.2l0,0c-0.1,0-0.1-0.1-0.2-0.1c0-0.1,0-0.2,0-0.3
	c0.1-0.1,0.2-0.2,0.2-0.2s0,0-0.1,0c-0.1,0-0.2,0.1-0.2,0.1c-0.1,0.1-0.1,0.2,0,0.3c0.1,0.2,0.3,0.3,0.5,0.2
	c0.1-0.1,0.2-0.1,0.2-0.3c0-0.1,0-0.2,0-0.2h0.1l0.9-0.1l3-0.3C62.7,84.8,62.8,86.1,62.9,87.6z"/>
<path class="st2" d="M77.5,84.9l-1.8-1.5l0,0l0,0h-0.2l-7.8,0.8l-1.2-0.7l0,0l-1.6,0.2l0,0l0,0l-1.6,2l0,0c0,0.5,0.1,0.9,0.1,1.2
	c0,0.1,0,0.2,0,0.3c0,0,0,0.1,0,0.1v-0.1c0-0.1,0-0.2,0-0.3c0-0.3-0.1-0.7-0.1-1.2l1.6-2l1.6-0.1l1.2,0.7l0,0l7.8-0.8h0.1L77.5,84.9
	L77.5,84.9L77.5,84.9l0.3,0.1v-0.1L77.5,84.9z"/>
<path class="st2" d="M46.5,79.5L62,78l2.3,2.4l0,0l0,0l4.7-0.5l1.3-0.1h0.3h0.1l0,0c0.1,0.2,0.3,0.3,0.5,0.2c0,0,0,0,0,0
	c0.1,0,0.2-0.1,0.2-0.3c0-0.1,0-0.3-0.1-0.3c-0.1-0.1-0.1-0.1-0.2-0.1c-0.1,0-0.1,0-0.1,0c0.1,0,0.2,0.1,0.2,0.1c0,0.1,0,0.2,0,0.2
	c-0.1,0.1-0.2,0.2-0.3,0.1c-0.1,0-0.1-0.1-0.1-0.1c0-0.1,0-0.2,0-0.3c0.1-0.1,0.2-0.2,0.2-0.2s0,0-0.1,0c-0.1,0-0.2,0.1-0.2,0.1
	c0,0.1,0,0.2,0,0.3h0h-0.3L69,79.9l-4.7,0.4L62,77.9l0,0l0,0l-15.5,1.5L40.6,80c0,0.1,0,0.1,0,0.1L46.5,79.5z"/>
<path class="st2" d="M62.7,77.2l-1.4,0.1l-4.5,0.4l-0.1-0.6V77l0,0l-1.8-1l0,0l-3.7,0.4l-1,0.1H50h-0.1c0,0,0.1,0,0.1,0h0.3l1.1-0.1
	l3.6-0.3l1.7,1l0,0l0.1,0.7v0.1h0.1l4.6-0.5l1.4-0.2l0.4-0.1h0.1h-0.5L62.7,77.2z"/>
<path class="st2" d="M70.8,75.9l2.4,2.5l0,0l3-0.3c0,0,0,0,0-0.1l-2.9,0.3l-2.4-2.5l0,0l0,0L69,76l-7.2,0.7l-2.2,0.2L58.9,77h-0.2
	h0.2h0.6l2.2-0.2l7.2-0.7L70.8,75.9z"/>
<path class="st2" d="M60.3,75.1L60.3,75.1L60.3,75.1l1,1l0,0l0,0l5.8-0.6l3-0.3l0,0l0,0l2.3-3l-0.1-0.1l-2.3,3l-3,0.3L61.2,76l-1-1
	c-0.3-3.4-0.6-6.3-0.8-8.4l0,0h-0.1l0,0C59.7,68.8,59.9,71.7,60.3,75.1z"/>
<path class="st2" d="M52.7,68.9L52.7,68.9l1.9,1.6c0.2,1.9,0.4,3.5,0.5,4.9l0,0l0,0l1.8,0.9l0,0l1.2-0.1h0.3h0.1h-0.1H58l-1.1,0.1
	l-1.7-0.9c-0.1-1.3-0.3-3-0.5-4.9l0,0l0,0l-1.9-1.7l-0.1-1.1h-0.1C52.6,68.1,52.6,68.4,52.7,68.9L52.7,68.9z"/>
<path class="st2" d="M65.1,81.3L65.1,81.3L64,82.1l-3.5,0.4l-1,0.1h-0.2c0-0.1,0-0.1-0.1-0.2c-0.1-0.1-0.1-0.1-0.2-0.1h-0.1
	c0.1,0,0.2,0.1,0.2,0.1c0,0,0.1,0.1,0.1,0.2l0,0v0.1c0,0.1-0.1,0.2-0.2,0.2c-0.1,0-0.2,0-0.3-0.1c0-0.1,0-0.2,0-0.3
	c0.1-0.1,0.2-0.2,0.2-0.2s0,0-0.1,0c-0.1,0-0.1,0.1-0.2,0.1c-0.1,0.2-0.1,0.4,0.1,0.5c0.1,0.1,0.3,0.1,0.4,0c0.1,0,0.2-0.1,0.2-0.3
	c0,0,0-0.1,0-0.1h0.3l1-0.1l3.5-0.3l0,0L65.1,81.3l1.9-0.1l5.8-0.5l1.7-0.2h0.4c0,0.1,0.1,0.2,0.2,0.2c0.1,0,0.2-0.1,0.2-0.2
	c0-0.1-0.1-0.2-0.2-0.2c-0.1,0-0.2,0.1-0.2,0.2h-0.4l-1.8,0.1l-5.8,0.4L65.1,81.3z"/>
<path class="st2" d="M58.3,104.8c0-0.1,0-0.2,0-0.3c0-0.3-0.1-0.7-0.1-1.2c-0.1-1-0.2-2.3-0.4-3.8c0-0.5-0.1-0.9-0.1-1.3l0,0l0,0
	l-2.2-1.8c0-0.4-0.1-0.7-0.1-0.9s0-0.3,0-0.3h0.1c0.1,0,0.2-0.1,0.2-0.2c0,0,0,0,0,0c0-0.1-0.1-0.2-0.2-0.2c-0.1,0-0.2,0.1-0.2,0.2
	c0,0,0,0,0,0l0,0c0,0.1,0.1,0.1,0.1,0.2c0,0,0,0.1,0,0.3s0,0.5,0.1,0.9l0,0l0,0l2.2,1.8c0,0.4,0.1,0.9,0.1,1.3
	c0.2,1.5,0.3,2.8,0.4,3.8c0.1,0.5,0.1,0.8,0.1,1.2L58.3,104.8C58.2,104.8,58.2,104.8,58.3,104.8l0.2,0.1
	C58.4,104.8,58.3,104.7,58.3,104.8z"/>
</svg>
